<svg width="70" height="70" viewBox="0 0 70 70" fill="none" xmlns="http://www.w3.org/2000/svg">
<path d="M37.9167 8.75H11.6667C5.25 8.75 0 14 0 20.4167V58.3333C0 64.75 5.25 70 11.6667 70H49.5833C56 70 61.25 64.75 61.25 58.3333V32.0833C61.25 30.4792 59.9375 29.1667 58.3333 29.1667C56.7292 29.1667 55.4167 30.4792 55.4167 32.0833V45.5L45.7917 35.875C44.625 34.7083 42.875 34.7083 41.7083 35.875L35 42.5833L25.375 32.9583C24.2083 31.7917 22.4583 31.7917 21.2917 32.9583L5.83333 48.4167V20.4167C5.83333 17.2083 8.45833 14.5833 11.6667 14.5833H37.9167C39.5208 14.5833 40.8333 13.2708 40.8333 11.6667C40.8333 10.0625 39.5208 8.75 37.9167 8.75ZM23.3333 39.0833L32.9583 48.7083C34.125 49.875 35.875 49.875 37.0417 48.7083L43.75 42L55.4167 53.6667V58.3333C55.4167 61.5417 52.7917 64.1667 49.5833 64.1667H11.6667C8.45833 64.1667 5.83333 61.5417 5.83333 58.3333V56.5833L23.3333 39.0833Z" fill="#F7F7F7"/>
<path d="M67.0832 8.75H61.2498V2.91667C61.2498 1.3125 59.9373 0 58.3332 0C56.729 0 55.4165 1.3125 55.4165 2.91667V8.75H49.5832C47.979 8.75 46.6665 10.0625 46.6665 11.6667C46.6665 13.2708 47.979 14.5833 49.5832 14.5833H55.4165V20.4167C55.4165 22.0208 56.729 23.3333 58.3332 23.3333C59.9373 23.3333 61.2498 22.0208 61.2498 20.4167V14.5833H67.0832C68.6873 14.5833 69.9998 13.2708 69.9998 11.6667C69.9998 10.0625 68.6873 8.75 67.0832 8.75Z" fill="#F7F7F7"/>
</svg>
