<svg width="20" height="21" viewBox="0 0 19 20" fill="none" xmlns="http://www.w3.org/2000/svg">
<circle cx="9.70386" cy="9.83423" r="8.54614" stroke="#313C3E" stroke-width="1.5"/>
<path d="M9.17 10.57H10.68C10.68 9.51 12.36 9.33 12.36 7.73C12.36 6.55 11.32 5.88 9.82 5.88C8.47 5.88 7.53 6.4 6.99 7.22L8.2 7.93C8.52 7.47 9.01 7.19 9.65 7.19C10.3 7.19 10.73 7.5 10.73 7.99C10.73 8.86 9.17 9.17 9.17 10.57ZM9.93 13.08C10.49 13.08 10.89 12.67 10.89 12.17C10.89 11.66 10.49 11.28 9.93 11.28C9.37 11.28 8.97 11.66 8.97 12.17C8.97 12.67 9.37 13.08 9.93 13.08Z" fill="#313C3E"/>
</svg>
