<svg width="20" height="21" viewBox="0 0 20 21" fill="none" xmlns="http://www.w3.org/2000/svg">
<path d="M13.002 17.2245C12.8914 18.8313 11.4539 20.1305 9.68465 20.1305C7.91542 20.1305 6.47792 18.8313 6.36734 17.2245H2.31286C1.09651 17.2245 0.101318 16.3014 0.101318 15.1732C0.101318 14.045 1.09651 13.1219 2.31286 13.1219V9.01938C2.31286 6.1134 4.26638 3.58348 7.10452 2.62622V2.52366C7.10452 1.19032 8.24715 0.130493 9.68465 0.130493C11.1222 0.130493 12.2648 1.19032 12.2648 2.52366V2.62622C15.1029 3.61767 17.0564 6.14759 17.0564 9.01938V13.1219C18.2728 13.1219 19.268 14.045 19.268 15.1732C19.268 16.3014 18.2728 17.2245 17.0564 17.2245H13.002ZM11.5276 17.2245H7.8417C7.95228 18.0792 8.72632 18.763 9.68465 18.763C10.643 18.763 11.417 18.0792 11.5276 17.2245ZM8.06286 3.75443C5.55645 4.43819 3.78722 6.55784 3.78722 9.01938V13.1219C3.78722 13.8741 3.12375 14.4895 2.31286 14.4895C1.90741 14.4895 1.57568 14.7972 1.57568 15.1732C1.57568 15.5493 1.90741 15.857 2.31286 15.857H17.0564C17.4619 15.857 17.7936 15.5493 17.7936 15.1732C17.7936 14.7972 17.4619 14.4895 17.0564 14.4895C16.2455 14.4895 15.5821 13.8741 15.5821 13.1219V9.01938C15.5821 6.55784 13.8129 4.43819 11.3064 3.75443L10.7904 3.61767V2.52366C10.7904 1.94246 10.3113 1.49801 9.68465 1.49801C9.05805 1.49801 8.57888 1.94246 8.57888 2.52366V3.61767L8.06286 3.75443Z" fill="#313C3E"/>
</svg>
