<svg width="24" height="27" viewBox="0 0 24 27" fill="none" xmlns="http://www.w3.org/2000/svg">
<path d="M18.1666 25.9205L6.09173 25.9758C3.48722 25.9878 1.36962 23.8895 1.35768 21.285L1.32507 14.1694C1.31314 11.5649 3.41142 9.4473 6.01593 9.43536L18.0908 9.38002C20.6953 9.36809 22.8129 11.4664 22.8248 14.0709L22.8575 21.1864C22.8694 23.7909 20.7711 25.9085 18.1666 25.9205Z" stroke="#2FF0C2" stroke-width="1.5"/>
<path d="M14.4608 2.31461C15.8202 0.942643 17.9766 0.93276 19.3486 2.29221C20.7206 3.65166 20.7304 5.80804 19.371 7.18C18.0112 8.48009 12.0505 9.6575 12.0505 9.6575C12.0505 9.6575 13.1013 3.68658 14.4608 2.31461Z" stroke="#2FF0C2" stroke-width="1.5" stroke-miterlimit="10"/>
<path d="M9.57457 2.33784C8.2026 0.978391 6.04622 0.988273 4.68677 2.36024C3.32732 3.73221 3.40909 5.88826 4.70917 7.24803C6.00926 8.60781 12.0521 9.65833 12.0521 9.65833C12.0521 9.65833 10.9465 3.69729 9.57457 2.33784Z" stroke="#2FF0C2" stroke-width="1.5" stroke-miterlimit="10"/>
<path d="M12.0526 9.37679L12.132 26.6985" stroke="#2FF0C2" stroke-width="1.5" stroke-miterlimit="10"/>
</svg>
