<svg width="33" height="38" viewBox="0 0 33 38" fill="none" xmlns="http://www.w3.org/2000/svg">
<path d="M24.5631 36.1295L7.75834 36.2065C4.24751 36.2226 1.39318 33.3943 1.37709 29.8835L1.3317 19.9807C1.31561 16.4699 4.14391 13.6155 7.65474 13.5994L24.4594 13.5224C27.9703 13.5063 30.8246 16.3346 30.8407 19.8454L30.8861 29.7482C30.9022 33.2591 28.0739 36.1134 24.5631 36.1295Z" stroke="#202D30" stroke-width="2.5"/>
<path d="M19.4066 3.48316C21.2986 1.57378 24.2996 1.56002 26.209 3.45198C28.1184 5.34394 28.1322 8.34499 26.2402 10.2544C24.3478 12.0637 16.0522 13.7023 16.0522 13.7023C16.0522 13.7023 17.5147 5.39253 19.4066 3.48316Z" stroke="#202D30" stroke-width="2.5" stroke-miterlimit="10"/>
<path d="M12.607 3.5154C10.6976 1.62345 7.69652 1.6372 5.80456 3.54658C3.91261 5.45596 4.0264 8.45655 5.83574 10.349C7.64508 12.2414 16.0549 13.7034 16.0549 13.7034C16.0549 13.7034 14.5163 5.40736 12.607 3.5154Z" stroke="#202D30" stroke-width="2.5" stroke-miterlimit="10"/>
<path d="M16.0551 13.3115L16.1655 37.4183" stroke="#202D30" stroke-width="2.5" stroke-miterlimit="10"/>
</svg>
