<svg width="25" height="27" viewBox="0 0 25 27" fill="none" xmlns="http://www.w3.org/2000/svg">
<path d="M18.5915 25.4215L6.51661 25.4768C4.05017 25.4881 2.04501 23.5013 2.03371 21.0348L2.0011 13.9193C1.98979 11.4528 3.97666 9.44768 6.4431 9.43638L18.518 9.38104C20.9844 9.36974 22.9896 11.3566 23.0009 13.823L23.0335 20.9386C23.0448 23.405 21.0579 25.4102 18.5915 25.4215Z" stroke="#8EA7AB" stroke-width="2"/>
<path d="M14.8868 2.06581C16.2462 0.693848 18.4026 0.683966 19.7746 2.04341C21.1465 3.40286 21.1564 5.55924 19.797 6.93121C18.4372 8.2313 12.4765 9.40871 12.4765 9.40871C12.4765 9.40871 13.5273 3.43778 14.8868 2.06581Z" stroke="#8EA7AB" stroke-width="2" stroke-miterlimit="10"/>
<path d="M10.0005 2.08911C8.62858 0.729657 6.4722 0.73954 5.11275 2.11151C3.7533 3.48347 3.83507 5.63952 5.13515 6.9993C6.43524 8.35908 12.478 9.4096 12.478 9.4096C12.478 9.4096 11.3725 3.44855 10.0005 2.08911Z" stroke="#8EA7AB" stroke-width="2" stroke-miterlimit="10"/>
<path d="M12.4786 9.12793L12.558 26.4496" stroke="#8EA7AB" stroke-width="2" stroke-miterlimit="10"/>
</svg>
