<svg width="16" height="16" viewBox="0 0 16 16" fill="none" xmlns="http://www.w3.org/2000/svg">
<path d="M12.8809 1.66144L11.0183 4.08033C9.7994 3.17933 8.44879 2.87088 6.97455 3.16996C6.00319 3.36656 5.11702 3.86036 4.4388 4.58296C3.71714 5.33444 3.25175 6.29498 3.10927 7.32706C2.96679 8.35914 3.15452 9.40983 3.64558 10.3287C4.13664 11.2476 4.90586 11.9876 5.84311 12.4427C6.78036 12.8978 7.83757 13.0447 8.8634 12.8624C10.9052 12.5046 12.2846 10.9336 12.6792 9.5275H8.00546V6.47923H15.9861C15.9905 6.52232 15.9973 6.56165 15.9973 6.60411C15.9973 7.09301 16.0042 7.58253 15.9973 8.07143C15.9611 10.1694 15.2274 11.9889 13.7863 13.5142C12.6461 14.7212 11.2499 15.4842 9.62893 15.8326C8.96128 15.9769 8.27701 16.029 7.59521 15.9874C5.65453 15.8701 3.96175 15.1595 2.53746 13.8308C1.41151 12.7886 0.6144 11.4403 0.243983 9.95147C0.0455412 9.18477 -0.0332317 8.39202 0.0104521 7.60126C0.104114 5.92977 0.652975 4.42124 1.68513 3.09941C2.81532 1.6529 4.27229 0.700709 6.05603 0.242823C6.93982 0.0168332 7.85639 -0.0524825 8.76412 0.0380227C10.0324 0.156477 11.2534 0.579298 12.3233 1.27057C12.5106 1.39108 12.6879 1.52594 12.8809 1.66144Z" fill="#313C3E"/>
</svg>
