<svg width="87" height="43" viewBox="0 0 87 43" fill="none" xmlns="http://www.w3.org/2000/svg">
<path d="M20.2361 37.1097C19.6361 37.523 18.9828 37.843 18.2761 38.0697C17.5828 38.2963 16.8494 38.4097 16.0761 38.4097C15.0761 38.4097 14.1294 38.223 13.2361 37.8497C12.3561 37.463 11.5828 36.943 10.9161 36.2897C10.2628 35.623 9.74276 34.8497 9.35609 33.9697C8.98276 33.0897 8.79609 32.143 8.79609 31.1297C8.79609 30.1163 8.98276 29.1697 9.35609 28.2897C9.74276 27.3963 10.2628 26.623 10.9161 25.9697C11.5828 25.303 12.3561 24.783 13.2361 24.4097C14.1294 24.023 15.0761 23.8297 16.0761 23.8297C16.7028 23.8297 17.3094 23.9097 17.8961 24.0697C18.4828 24.2297 19.0361 24.4497 19.5561 24.7297C19.6628 24.7963 19.7361 24.8963 19.7761 25.0297C19.8161 25.163 19.8028 25.2897 19.7361 25.4097L18.8161 27.0297C18.7361 27.1363 18.6294 27.2097 18.4961 27.2497C18.3628 27.2763 18.2228 27.2563 18.0761 27.1897C17.7828 27.043 17.4628 26.9297 17.1161 26.8497C16.7828 26.7697 16.4361 26.7297 16.0761 26.7297C15.4494 26.7297 14.8694 26.843 14.3361 27.0697C13.8161 27.2963 13.3561 27.6097 12.9561 28.0097C12.5694 28.3963 12.2628 28.863 12.0361 29.4097C11.8228 29.943 11.7161 30.5163 11.7161 31.1297C11.7161 31.7563 11.8228 32.3363 12.0361 32.8697C12.2628 33.403 12.5694 33.863 12.9561 34.2497C13.3561 34.6363 13.8161 34.943 14.3361 35.1697C14.8694 35.3963 15.4494 35.5097 16.0761 35.5097C16.2494 35.5097 16.4161 35.503 16.5761 35.4897C16.7361 35.4763 16.8894 35.4497 17.0361 35.4097H17.0561C17.2428 35.3297 17.3628 35.2297 17.4161 35.1097C17.4828 34.9897 17.5161 34.803 17.5161 34.5497V33.8297C17.5161 33.683 17.4761 33.563 17.3961 33.4697C17.3161 33.3763 17.2094 33.3297 17.0761 33.3297H15.7161C15.5694 33.3297 15.4494 33.283 15.3561 33.1897C15.2628 33.0963 15.2161 32.9763 15.2161 32.8297V30.9297C15.2161 30.783 15.2628 30.663 15.3561 30.5697C15.4494 30.4763 15.5694 30.4297 15.7161 30.4297H19.9161C20.0494 30.4297 20.1628 30.4763 20.2561 30.5697C20.3628 30.663 20.4161 30.783 20.4161 30.9297V36.7297C20.4161 36.903 20.3561 37.0297 20.2361 37.1097ZM25.3094 24.0097C25.456 24.0097 25.576 24.0563 25.6694 24.1497C25.7627 24.243 25.8094 24.3697 25.8094 24.5297V37.7097C25.8094 37.843 25.7627 37.963 25.6694 38.0697C25.576 38.163 25.456 38.2097 25.3094 38.2097H23.4094C23.2627 38.2097 23.1427 38.163 23.0494 38.0697C22.956 37.963 22.9094 37.843 22.9094 37.7097V24.5297C22.9094 24.3697 22.956 24.243 23.0494 24.1497C23.1427 24.0563 23.2627 24.0097 23.4094 24.0097H25.3094ZM36.8572 24.0097C36.9905 24.0097 37.1039 24.063 37.1972 24.1697C37.3039 24.263 37.3572 24.383 37.3572 24.5297V26.4097C37.3572 26.5563 37.3039 26.683 37.1972 26.7897C37.1039 26.883 36.9905 26.9297 36.8572 26.9297H31.6172C31.5105 26.9297 31.4172 26.9763 31.3372 27.0697C31.2572 27.163 31.2172 27.263 31.2172 27.3697V29.4897C31.2172 29.6097 31.2572 29.7163 31.3372 29.8097C31.4172 29.8897 31.5105 29.9297 31.6172 29.9297H36.8572C36.9905 29.9297 37.1039 29.9763 37.1972 30.0697C37.3039 30.163 37.3572 30.283 37.3572 30.4297V32.3297C37.3572 32.4763 37.3039 32.5963 37.1972 32.6897C37.1039 32.783 36.9905 32.8297 36.8572 32.8297H31.6172C31.5105 32.8297 31.4172 32.8763 31.3372 32.9697C31.2572 33.0497 31.2172 33.1497 31.2172 33.2697V37.7097C31.2172 37.843 31.1705 37.963 31.0772 38.0697C30.9839 38.163 30.8639 38.2097 30.7172 38.2097H28.8172C28.6705 38.2097 28.5505 38.163 28.4572 38.0697C28.3639 37.963 28.3172 37.843 28.3172 37.7097V24.5297C28.3172 24.3697 28.3639 24.243 28.4572 24.1497C28.5505 24.0563 28.6705 24.0097 28.8172 24.0097H36.8572ZM36.6523 24.5297C36.6523 24.383 36.699 24.263 36.7923 24.1697C36.8857 24.063 37.0057 24.0097 37.1523 24.0097H46.2123C46.3457 24.0097 46.459 24.063 46.5523 24.1697C46.659 24.263 46.7123 24.383 46.7123 24.5297V26.4097C46.7123 26.5563 46.659 26.683 46.5523 26.7897C46.459 26.883 46.3457 26.9297 46.2123 26.9297H43.5523C43.4323 26.9297 43.3323 26.9763 43.2523 27.0697C43.1723 27.163 43.1323 27.263 43.1323 27.3697V37.7097C43.1323 37.843 43.0857 37.963 42.9923 38.0697C42.899 38.163 42.779 38.2097 42.6323 38.2097H40.7323C40.5857 38.2097 40.4657 38.163 40.3723 38.0697C40.279 37.963 40.2323 37.843 40.2323 37.7097V27.4297C40.2323 27.3097 40.1923 27.1963 40.1123 27.0897C40.0323 26.983 39.939 26.9297 39.8323 26.9297H37.1523C37.0057 26.9297 36.8857 26.883 36.7923 26.7897C36.699 26.683 36.6523 26.5563 36.6523 26.4097V24.5297Z" fill="white"/>
<path d="M53.5961 38.2097C53.4494 38.2097 53.3294 38.163 53.2361 38.0697C53.1428 37.963 53.0961 37.843 53.0961 37.7097V32.7497C53.0961 32.5897 53.0628 32.443 52.9961 32.3097C52.9428 32.1763 52.8828 32.0297 52.8161 31.8697L49.4761 24.6497C49.4094 24.503 49.3961 24.363 49.4361 24.2297C49.4894 24.083 49.5894 24.0097 49.7361 24.0097H51.5361C51.7494 24.0097 51.9228 24.023 52.0561 24.0497C52.1894 24.0763 52.2894 24.163 52.3561 24.3097L54.2561 28.3297C54.3361 28.503 54.4294 28.5897 54.5361 28.5897C54.6428 28.5897 54.7161 28.5497 54.7561 28.4697L56.7161 24.3097C56.7828 24.163 56.8828 24.0763 57.0161 24.0497C57.1494 24.023 57.3228 24.0097 57.5361 24.0097H59.3361C59.4828 24.0097 59.5761 24.083 59.6161 24.2297C59.6694 24.363 59.6628 24.503 59.5961 24.6497L56.2761 31.8297C56.2094 31.963 56.1428 32.1163 56.0761 32.2897C56.0228 32.4497 55.9961 32.603 55.9961 32.7497V37.7097C55.9961 37.843 55.9494 37.963 55.8561 38.0697C55.7628 38.163 55.6428 38.2097 55.4961 38.2097H53.5961ZM59.2703 31.1297C59.2703 30.1163 59.457 29.1697 59.8303 28.2897C60.217 27.3963 60.737 26.623 61.3903 25.9697C62.057 25.303 62.8303 24.783 63.7103 24.4097C64.6036 24.023 65.5503 23.8297 66.5503 23.8297C67.5636 23.8297 68.5103 24.023 69.3903 24.4097C70.2836 24.783 71.057 25.303 71.7103 25.9697C72.377 26.623 72.897 27.3963 73.2703 28.2897C73.657 29.1697 73.8503 30.1163 73.8503 31.1297C73.8503 32.143 73.657 33.0897 73.2703 33.9697C72.897 34.8497 72.377 35.623 71.7103 36.2897C71.057 36.943 70.2836 37.463 69.3903 37.8497C68.5103 38.223 67.5636 38.4097 66.5503 38.4097C65.5503 38.4097 64.6036 38.223 63.7103 37.8497C62.8303 37.463 62.057 36.943 61.3903 36.2897C60.737 35.623 60.217 34.8497 59.8303 33.9697C59.457 33.0897 59.2703 32.143 59.2703 31.1297ZM62.1903 31.1297C62.1903 31.7563 62.297 32.3363 62.5103 32.8697C62.737 33.403 63.0436 33.863 63.4303 34.2497C63.8303 34.6363 64.2903 34.943 64.8103 35.1697C65.3436 35.3963 65.9236 35.5097 66.5503 35.5097C67.177 35.5097 67.757 35.3963 68.2903 35.1697C68.8236 34.943 69.2836 34.6363 69.6703 34.2497C70.0703 33.863 70.3836 33.403 70.6103 32.8697C70.837 32.3363 70.9503 31.7563 70.9503 31.1297C70.9503 30.5163 70.837 29.943 70.6103 29.4097C70.3836 28.863 70.0703 28.3963 69.6703 28.0097C69.2836 27.6097 68.8236 27.2963 68.2903 27.0697C67.757 26.843 67.177 26.7297 66.5503 26.7297C65.9236 26.7297 65.3436 26.843 64.8103 27.0697C64.2903 27.2963 63.8303 27.6097 63.4303 28.0097C63.0436 28.3963 62.737 28.863 62.5103 29.4097C62.297 29.943 62.1903 30.5163 62.1903 31.1297ZM77.7422 24.0097C77.8889 24.0097 78.0089 24.0563 78.1022 24.1497C78.1955 24.243 78.2422 24.3697 78.2422 24.5297V31.5297C78.2422 32.223 78.2689 32.823 78.3222 33.3297C78.3889 33.823 78.5089 34.2363 78.6822 34.5697C78.8555 34.8897 79.0955 35.1297 79.4022 35.2897C79.7089 35.4363 80.1022 35.5097 80.5822 35.5097C81.0755 35.5097 81.4755 35.4363 81.7822 35.2897C82.0889 35.1297 82.3289 34.8897 82.5022 34.5697C82.6755 34.2363 82.7889 33.823 82.8422 33.3297C82.9089 32.823 82.9422 32.223 82.9422 31.5297V24.5297C82.9422 24.3697 82.9889 24.243 83.0822 24.1497C83.1755 24.0563 83.2955 24.0097 83.4422 24.0097H85.3422C85.4889 24.0097 85.6089 24.0563 85.7022 24.1497C85.7955 24.243 85.8422 24.3697 85.8422 24.5297V32.5297C85.8422 34.463 85.4222 35.9297 84.5822 36.9297C83.7422 37.9163 82.4089 38.4097 80.5822 38.4097C78.7689 38.4097 77.4422 37.9097 76.6022 36.9097C75.7622 35.9097 75.3422 34.4497 75.3422 32.5297V24.5297C75.3422 24.3697 75.3889 24.243 75.4822 24.1497C75.5755 24.0563 75.6955 24.0097 75.8422 24.0097H77.7422Z" fill="white"/>
<path d="M4.19609 24.0097C4.34276 24.0097 4.46276 24.0563 4.55609 24.1497C4.64943 24.243 4.69609 24.3697 4.69609 24.5297V37.7097C4.69609 37.843 4.64943 37.963 4.55609 38.0697C4.46276 38.163 4.34276 38.2097 4.19609 38.2097H2.29609C2.14943 38.2097 2.02943 38.163 1.93609 38.0697C1.84276 37.963 1.79609 37.843 1.79609 37.7097V24.5297C1.79609 24.3697 1.84276 24.243 1.93609 24.1497C2.02943 24.0563 2.14943 24.0097 2.29609 24.0097H4.19609Z" fill="white"/>
</svg>
