<svg width="38" height="37" viewBox="0 0 38 37" fill="none" xmlns="http://www.w3.org/2000/svg">
<path d="M20.9406 19.5603L21.0085 19.6962L21.1785 19.7302C21.0765 19.6623 21.0085 19.5943 20.9406 19.5603Z" fill="#2FF0C2"/>
<path d="M14.6558 25.8092C14.5538 25.7753 14.4859 25.7073 14.4519 25.6053L14.078 23.3278L11.9705 23.1919C11.8685 23.1919 11.7665 23.1239 11.7325 23.0219C11.6985 22.9199 11.7325 22.818 11.8005 22.75L16.3214 18.637C15.0977 18.8409 13.1262 18.7729 11.8345 18.433C11.7325 18.399 11.5966 18.365 11.4946 18.3311H11.4266C11.2226 18.2631 10.9847 18.1951 10.8487 17.9911C10.6788 17.7532 10.6108 17.4813 10.6788 17.2093C10.6788 17.1413 10.7128 17.0734 10.7468 17.0054L8.67326 16.4615C7.61951 16.1896 6.49778 16.1216 5.41004 16.2915C4.83218 16.3935 4.39029 16.5295 4.05037 16.7334C1.12708 18.433 -0.0286427 21.9342 1.50099 24.5516C2.18082 25.7073 3.26856 26.5231 4.62823 26.897C4.28832 28.2567 4.45827 29.6163 5.13811 30.772C5.88593 32.0297 7.14363 32.9135 8.67326 33.2195C10.2029 33.5254 11.8005 33.2534 13.2282 32.4037C13.5341 32.2337 13.874 31.9278 14.2139 31.4859C14.9277 30.6361 15.4036 29.6163 15.6756 28.5626L17.4431 21.8322L14.9277 25.7073C14.8598 25.7753 14.7578 25.8432 14.6558 25.8092Z" fill="#2FF0C2"/>
<path d="M11.5259 13.8546C11.4579 13.4127 11.7638 13.1747 12.1037 13.1067C12.1377 13.1067 12.1717 13.1067 12.1717 13.1067C13.4974 12.9028 16.8626 13.7186 18.3922 15.7241C18.5962 15.6221 18.8341 15.5881 19.0721 15.5881L21.0776 7.94C21.3495 6.88625 21.4175 5.79851 21.2135 4.71078C21.1116 4.16691 20.9756 3.75901 20.8056 3.45308C19.1061 0.529788 15.6049 -0.625932 12.9875 0.903698C11.8318 1.58353 11.016 2.67127 10.6421 4.03094C9.28243 3.69102 7.92276 3.86098 6.76704 4.54082C4.14967 6.07045 3.40185 9.67358 5.13543 12.5969C5.30539 12.9028 5.61132 13.2427 6.05321 13.5826C6.90301 14.2965 7.92276 14.7723 8.9765 15.0443L11.22 15.6221C11.3899 15.0103 11.5939 14.3644 11.5259 13.8546Z" fill="#2FF0C2"/>
<path d="M26.4159 21.7709C26.178 21.8729 25.94 21.8389 25.7361 21.8049H25.6681C25.5661 21.7709 25.4301 21.7709 25.3282 21.7369C23.9685 21.397 22.0989 20.5132 21.1472 19.7654L20.9772 19.7314L23.1527 25.544C23.1867 25.646 23.1527 25.7479 23.0847 25.8159C23.0167 25.8839 22.9147 25.9179 22.8128 25.8499L20.8752 25.0001L19.5156 26.8357C19.4476 26.9036 19.3456 26.9716 19.2436 26.9376C19.1417 26.9036 19.0737 26.8357 19.0397 26.6997L18.6318 22.7567L17.0342 28.8752C16.7622 29.9289 16.6942 31.0506 16.8642 32.1384C16.9662 32.7162 17.1021 33.1581 17.3061 33.4981C18.1219 34.9257 19.3796 35.9455 20.8752 36.4553C21.4191 36.6253 21.997 36.7273 22.5408 36.7273C23.4586 36.7273 24.3424 36.5233 25.1582 36.0474C26.3139 35.3676 27.1297 34.2799 27.5036 32.9202C28.8633 33.2601 30.223 33.0901 31.3787 32.4103C33.9961 30.8807 34.7439 27.2776 33.0103 24.3543C32.8403 24.0483 32.5344 23.7084 32.0925 23.3345C31.2427 22.6207 30.223 22.1448 29.1692 21.8389L26.8918 21.227C26.7898 21.465 26.6198 21.6689 26.4159 21.7709Z" fill="#2FF0C2"/>
<path d="M36.6461 12.4287C35.9663 11.2729 34.8786 10.4571 33.5189 10.0832C33.8588 8.72355 33.6889 7.36388 33.009 6.20816C31.4794 3.5568 27.8763 2.84298 24.953 4.54256C24.5791 4.74651 24.1712 5.15442 23.7293 5.73228C23.1174 6.54808 22.6755 7.46586 22.4036 8.45162L20.3981 16.0318C20.5 16.1338 20.602 16.2017 20.704 16.3377C22.9814 15.25 26.3466 16.0658 27.4344 16.8816C27.4684 16.8816 27.4684 16.9156 27.5024 16.9156C27.7743 17.1195 27.9103 17.4934 27.6723 17.8333C27.3664 18.3092 27.1964 19.125 27.0945 19.9068L29.4739 20.5187C30.5616 20.7906 31.6833 20.8926 32.7711 20.6887C33.3149 20.5867 33.7568 20.4507 34.0628 20.2808C35.4904 19.465 36.5102 18.2073 37.0201 16.7116C37.5299 15.216 37.394 13.6864 36.6461 12.4287Z" fill="#2FF0C2"/>
</svg>
