<svg width="137" height="85" viewBox="0 0 137 85" fill="none" xmlns="http://www.w3.org/2000/svg">
<path d="M21.2205 64.2491C21.0641 64.1969 20.9598 64.0926 20.9076 63.9362L20.334 60.442L17.1005 60.2334C16.9441 60.2334 16.7876 60.1291 16.7355 59.9726C16.6833 59.8162 16.7355 59.6597 16.8398 59.5554L23.776 53.245C21.8985 53.5579 18.8737 53.4536 16.8919 52.9321C16.7355 52.88 16.5269 52.8278 16.3704 52.7757H16.2661C15.9532 52.6714 15.5881 52.5671 15.3795 52.2541C15.1188 51.8891 15.0145 51.4719 15.1188 51.0547C15.1188 50.9504 15.1709 50.8461 15.2231 50.7417L12.0418 49.9073C10.4251 49.4901 8.70409 49.3858 7.03523 49.6466C6.14865 49.803 5.47068 50.0116 4.94916 50.3245C0.464099 52.9321 -1.30906 58.3038 1.03777 62.3194C2.08081 64.0926 3.74967 65.3443 5.83574 65.9179C5.31422 68.004 5.57498 70.0901 6.61802 71.8632C7.76536 73.7929 9.69497 75.1488 12.0418 75.6182C14.3886 76.0875 16.8398 75.6703 19.0302 74.3665C19.4995 74.1058 20.021 73.6364 20.5426 72.9584C21.6377 71.6546 22.3679 70.0901 22.7851 68.4734L25.497 58.1473L21.6377 64.0926C21.5334 64.1969 21.377 64.3012 21.2205 64.2491Z" fill="#2FF0C2"/>
<path d="M16.4188 45.9076C16.3144 45.2296 16.7838 44.8646 17.3053 44.7603C17.3575 44.7603 17.4096 44.7603 17.4096 44.7603C19.4436 44.4474 24.6066 45.699 26.9534 48.776C27.2663 48.6195 27.6314 48.5674 27.9965 48.5674L31.0734 36.8332C31.4906 35.2165 31.5949 33.5476 31.282 31.8788C31.1256 31.0443 30.917 30.4185 30.6562 29.9492C28.0486 25.4641 22.677 23.6909 18.6613 26.0378C16.8881 27.0808 15.6365 28.7497 15.0628 30.8357C12.9767 30.3142 10.8907 30.575 9.1175 31.618C5.10181 33.9648 3.95447 39.4929 6.61421 43.978C6.87497 44.4474 7.34434 44.9689 8.02231 45.4904C9.32611 46.5856 10.8907 47.3157 12.5074 47.7329L15.9494 48.6195C16.2101 47.6808 16.5231 46.6899 16.4188 45.9076Z" fill="#2FF0C2"/>
<path d="M39.2636 58.0529C38.8986 58.2094 38.5335 58.1572 38.2206 58.1051H38.1163C37.9598 58.0529 37.7512 58.0529 37.5948 58.0008C35.5087 57.4793 32.6403 56.1233 31.1801 54.976L30.9193 54.9238L34.257 63.8418C34.3092 63.9982 34.257 64.1547 34.1527 64.259C34.0484 64.3633 33.892 64.4155 33.7355 64.3112L30.7629 63.0074L28.6768 65.8236C28.5725 65.9279 28.416 66.0322 28.2596 65.98C28.1031 65.9279 27.9988 65.8236 27.9467 65.6149L27.3209 59.5653L24.8697 68.9527C24.4525 70.5694 24.3482 72.2904 24.609 73.9592C24.7654 74.8458 24.974 75.5238 25.2869 76.0453C26.5386 78.2357 28.4682 79.8002 30.7629 80.5825C31.5973 80.8433 32.4839 80.9997 33.3183 80.9997C34.7264 80.9997 36.0824 80.6868 37.334 79.9567C39.1072 78.9137 40.3588 77.2448 40.9325 75.1587C43.0186 75.6802 45.1046 75.4195 46.8778 74.3764C50.8935 72.0296 52.0408 66.5015 49.3811 62.0165C49.1203 61.5471 48.6509 61.0256 47.973 60.4519C46.6692 59.3567 45.1046 58.6266 43.4879 58.1572L39.9937 57.2185C39.8373 57.5836 39.5765 57.8965 39.2636 58.0529Z" fill="#2FF0C2"/>
<path d="M54.9588 43.7201C53.9158 41.9469 52.2469 40.6953 50.1609 40.1216C50.6824 38.0355 50.4216 35.9495 49.3786 34.1763C47.0318 30.1085 41.5037 29.0133 37.0186 31.6209C36.4449 31.9338 35.8191 32.5596 35.1412 33.4462C34.2024 34.6978 33.5244 36.1059 33.1072 37.6183L30.0303 49.2482C30.1867 49.4046 30.3432 49.5089 30.4996 49.7175C33.9938 48.0487 39.1568 49.3003 40.8257 50.552C40.8779 50.552 40.8778 50.6041 40.93 50.6041C41.3472 50.917 41.5558 51.4907 41.1908 52.0122C40.7214 52.7423 40.4606 53.994 40.3042 55.1935L43.9548 56.1322C45.6237 56.5494 47.3447 56.7059 49.0135 56.393C49.848 56.2365 50.5259 56.0279 50.9953 55.7672C53.1857 54.5155 54.7502 52.5859 55.5325 50.2912C56.3148 47.9965 56.1062 45.6497 54.9588 43.7201Z" fill="#2FF0C2"/>
<path d="M93.7897 49.5195C92.9822 50.0758 92.1028 50.5065 91.1517 50.8116C90.2186 51.1166 89.2316 51.2692 88.1907 51.2692C86.8448 51.2692 85.5707 51.0179 84.3684 50.5155C83.184 49.9951 82.1431 49.2952 81.2458 48.4159C80.3665 47.5186 79.6666 46.4777 79.1462 45.2933C78.6438 44.1089 78.3925 42.8348 78.3925 41.471C78.3925 40.1071 78.6438 38.833 79.1462 37.6486C79.6666 36.4462 80.3665 35.4054 81.2458 34.5261C82.1431 33.6288 83.184 32.9289 84.3684 32.4265C85.5707 31.906 86.8448 31.6458 88.1907 31.6458C89.0342 31.6458 89.8507 31.7535 90.6403 31.9689C91.4299 32.1842 92.1746 32.4803 92.8745 32.8572C93.0181 32.9469 93.1168 33.0815 93.1706 33.2609C93.2244 33.4404 93.2065 33.6109 93.1168 33.7724L91.8785 35.9527C91.7709 36.0963 91.6273 36.195 91.4478 36.2488C91.2684 36.2847 91.08 36.2578 90.8826 36.1681C90.4878 35.9707 90.0571 35.8182 89.5905 35.7105C89.1418 35.6028 88.6753 35.549 88.1907 35.549C87.3473 35.549 86.5667 35.7015 85.8489 36.0066C85.149 36.3117 84.5299 36.7334 83.9915 37.2717C83.4711 37.7922 83.0583 38.4202 82.7533 39.156C82.4661 39.8738 82.3226 40.6455 82.3226 41.471C82.3226 42.3144 82.4661 43.095 82.7533 43.8128C83.0583 44.5307 83.4711 45.1498 83.9915 45.6702C84.5299 46.1906 85.149 46.6034 85.8489 46.9084C86.5667 47.2135 87.3473 47.366 88.1907 47.366C88.424 47.366 88.6483 47.3571 88.8637 47.3391C89.079 47.3212 89.2854 47.2853 89.4828 47.2315H89.5097C89.761 47.1238 89.9225 46.9892 89.9943 46.8277C90.084 46.6662 90.1288 46.4149 90.1288 46.074V45.1049C90.1288 44.9075 90.075 44.746 89.9673 44.6204C89.8597 44.4948 89.7161 44.432 89.5366 44.432H87.7062C87.5088 44.432 87.3473 44.3692 87.2217 44.2435C87.0961 44.1179 87.0333 43.9564 87.0333 43.759V41.2018C87.0333 41.0044 87.0961 40.8429 87.2217 40.7173C87.3473 40.5916 87.5088 40.5288 87.7062 40.5288H93.359C93.5385 40.5288 93.691 40.5916 93.8166 40.7173C93.9602 40.8429 94.032 41.0044 94.032 41.2018V49.0081C94.032 49.2413 93.9512 49.4118 93.7897 49.5195ZM100.618 31.8881C100.815 31.8881 100.977 31.9509 101.102 32.0765C101.228 32.2021 101.291 32.3726 101.291 32.588V50.327C101.291 50.5065 101.228 50.668 101.102 50.8116C100.977 50.9372 100.815 51 100.618 51H98.0607C97.8633 51 97.7017 50.9372 97.5761 50.8116C97.4505 50.668 97.3877 50.5065 97.3877 50.327V32.588C97.3877 32.3726 97.4505 32.2021 97.5761 32.0765C97.7017 31.9509 97.8633 31.8881 98.0607 31.8881H100.618ZM116.16 31.8881C116.34 31.8881 116.492 31.9599 116.618 32.1034C116.761 32.2291 116.833 32.3906 116.833 32.588V35.1183C116.833 35.3157 116.761 35.4862 116.618 35.6297C116.492 35.7553 116.34 35.8182 116.16 35.8182H109.108C108.964 35.8182 108.838 35.881 108.731 36.0066C108.623 36.1322 108.569 36.2668 108.569 36.4104V39.2637C108.569 39.4252 108.623 39.5688 108.731 39.6944C108.838 39.802 108.964 39.8559 109.108 39.8559H116.16C116.34 39.8559 116.492 39.9187 116.618 40.0443C116.761 40.1699 116.833 40.3314 116.833 40.5288V43.0861C116.833 43.2835 116.761 43.445 116.618 43.5706C116.492 43.6962 116.34 43.759 116.16 43.759H109.108C108.964 43.759 108.838 43.8218 108.731 43.9474C108.623 44.0551 108.569 44.1897 108.569 44.3512V50.327C108.569 50.5065 108.506 50.668 108.381 50.8116C108.255 50.9372 108.094 51 107.896 51H105.339C105.142 51 104.98 50.9372 104.855 50.8116C104.729 50.668 104.666 50.5065 104.666 50.327V32.588C104.666 32.3726 104.729 32.2021 104.855 32.0765C104.98 31.9509 105.142 31.8881 105.339 31.8881H116.16ZM115.884 32.588C115.884 32.3906 115.947 32.2291 116.073 32.1034C116.199 31.9599 116.36 31.8881 116.557 31.8881H128.751C128.931 31.8881 129.083 31.9599 129.209 32.1034C129.353 32.2291 129.424 32.3906 129.424 32.588V35.1183C129.424 35.3157 129.353 35.4862 129.209 35.6297C129.083 35.7553 128.931 35.8182 128.751 35.8182H125.171C125.01 35.8182 124.875 35.881 124.767 36.0066C124.66 36.1322 124.606 36.2668 124.606 36.4104V50.327C124.606 50.5065 124.543 50.668 124.418 50.8116C124.292 50.9372 124.13 51 123.933 51H121.376C121.178 51 121.017 50.9372 120.891 50.8116C120.766 50.668 120.703 50.5065 120.703 50.327V36.4911C120.703 36.3296 120.649 36.1771 120.541 36.0335C120.434 35.8899 120.308 35.8182 120.164 35.8182H116.557C116.36 35.8182 116.199 35.7553 116.073 35.6297C115.947 35.4862 115.884 35.3157 115.884 35.1183V32.588Z" fill="#2FF0C2"/>
<path d="M73.1912 78.9277C72.9938 78.9277 72.8323 78.8649 72.7067 78.7393C72.581 78.5957 72.5182 78.4342 72.5182 78.2548V71.5791C72.5182 71.3637 72.4734 71.1663 72.3836 70.9869C72.3119 70.8074 72.2311 70.61 72.1414 70.3947L67.646 60.6772C67.5563 60.4798 67.5384 60.2914 67.5922 60.1119C67.664 59.9145 67.7986 59.8158 67.996 59.8158H70.4186C70.7057 59.8158 70.939 59.8338 71.1185 59.8697C71.2979 59.9056 71.4325 60.0222 71.5223 60.2196L74.0795 65.6302C74.1872 65.8635 74.3128 65.9801 74.4563 65.9801C74.5999 65.9801 74.6986 65.9263 74.7524 65.8186L77.3904 60.2196C77.4801 60.0222 77.6147 59.9056 77.7942 59.8697C77.9736 59.8338 78.2069 59.8158 78.4941 59.8158H80.9167C81.1141 59.8158 81.2397 59.9145 81.2935 60.1119C81.3653 60.2914 81.3564 60.4798 81.2666 60.6772L76.7982 70.3408C76.7085 70.5203 76.6188 70.7267 76.529 70.96C76.4572 71.1753 76.4214 71.3817 76.4214 71.5791V78.2548C76.4214 78.4342 76.3585 78.5957 76.2329 78.7393C76.1073 78.8649 75.9458 78.9277 75.7484 78.9277H73.1912ZM80.8282 69.3987C80.8282 68.0349 81.0794 66.7607 81.5819 65.5763C82.1023 64.374 82.8022 63.3331 83.6815 62.4538C84.5788 61.5565 85.6196 60.8567 86.804 60.3542C88.0063 59.8338 89.2805 59.5736 90.6264 59.5736C91.9902 59.5736 93.2643 59.8338 94.4487 60.3542C95.6511 60.8567 96.6919 61.5565 97.5713 62.4538C98.4685 63.3331 99.1684 64.374 99.6709 65.5763C100.191 66.7607 100.451 68.0349 100.451 69.3987C100.451 70.7626 100.191 72.0367 99.6709 73.2211C99.1684 74.4055 98.4685 75.4463 97.5713 76.3436C96.6919 77.2229 95.6511 77.9228 94.4487 78.4432C93.2643 78.9457 91.9902 79.1969 90.6264 79.1969C89.2805 79.1969 88.0063 78.9457 86.804 78.4432C85.6196 77.9228 84.5788 77.2229 83.6815 76.3436C82.8022 75.4463 82.1023 74.4055 81.5819 73.2211C81.0794 72.0367 80.8282 70.7626 80.8282 69.3987ZM84.7582 69.3987C84.7582 70.2421 84.9018 71.0228 85.1889 71.7406C85.494 72.4584 85.9067 73.0775 86.4271 73.5979C86.9655 74.1184 87.5846 74.5311 88.2845 74.8362C89.0023 75.1412 89.7829 75.2938 90.6264 75.2938C91.4698 75.2938 92.2504 75.1412 92.9682 74.8362C93.6861 74.5311 94.3052 74.1184 94.8256 73.5979C95.364 73.0775 95.7857 72.4584 96.0908 71.7406C96.3958 71.0228 96.5484 70.2421 96.5484 69.3987C96.5484 68.5732 96.3958 67.8016 96.0908 67.0837C95.7857 66.348 95.364 65.7199 94.8256 65.1995C94.3052 64.6611 93.6861 64.2394 92.9682 63.9343C92.2504 63.6292 91.4698 63.4767 90.6264 63.4767C89.7829 63.4767 89.0023 63.6292 88.2845 63.9343C87.5846 64.2394 86.9655 64.6611 86.4271 65.1995C85.9067 65.7199 85.494 66.348 85.1889 67.0837C84.9018 67.8016 84.7582 68.5732 84.7582 69.3987ZM105.69 59.8158C105.887 59.8158 106.049 59.8786 106.174 60.0043C106.3 60.1299 106.363 60.3004 106.363 60.5157V69.9371C106.363 70.8702 106.398 71.6778 106.47 72.3597C106.56 73.0237 106.721 73.58 106.955 74.0286C107.188 74.4593 107.511 74.7823 107.924 74.9977C108.337 75.1951 108.866 75.2938 109.512 75.2938C110.176 75.2938 110.714 75.1951 111.127 74.9977C111.54 74.7823 111.863 74.4593 112.096 74.0286C112.329 73.58 112.482 73.0237 112.554 72.3597C112.643 71.6778 112.688 70.8702 112.688 69.9371V60.5157C112.688 60.3004 112.751 60.1299 112.877 60.0043C113.002 59.8786 113.164 59.8158 113.361 59.8158H115.919C116.116 59.8158 116.277 59.8786 116.403 60.0043C116.529 60.1299 116.591 60.3004 116.591 60.5157V71.283C116.591 73.8851 116.026 75.8591 114.896 77.205C113.765 78.5329 111.971 79.1969 109.512 79.1969C107.071 79.1969 105.286 78.524 104.155 77.1781C103.025 75.8321 102.459 73.8671 102.459 71.283V60.5157C102.459 60.3004 102.522 60.1299 102.648 60.0043C102.773 59.8786 102.935 59.8158 103.132 59.8158H105.69Z" fill="#2FF0C2"/>
<path d="M71.9799 32.1523C72.1773 32.1523 72.3388 32.2151 72.4644 32.3407C72.59 32.4663 72.6528 32.6368 72.6528 32.8521V50.5912C72.6528 50.7707 72.59 50.9322 72.4644 51.0757C72.3388 51.2014 72.1773 51.2642 71.9799 51.2642H69.4226C69.2252 51.2642 69.0637 51.2014 68.9381 51.0757C68.8125 50.9322 68.7497 50.7707 68.7497 50.5912V32.8521C68.7497 32.6368 68.8125 32.4663 68.9381 32.3407C69.0637 32.2151 69.2252 32.1523 69.4226 32.1523H71.9799Z" fill="#2FF0C2"/>
</svg>
