<svg width="110" height="36" viewBox="0 0 110 36" fill="none" xmlns="http://www.w3.org/2000/svg">
<path d="M9.49315 0.219999C9.62515 0.219999 9.73315 0.261999 9.81715 0.346C9.91315 0.429999 9.96115 0.543999 9.96115 0.688V12.55C9.96115 12.67 9.91315 12.778 9.81715 12.874C9.73315 12.958 9.62515 13 9.49315 13H7.80115C7.66915 13 7.55515 12.958 7.45915 12.874C7.37515 12.778 7.33315 12.67 7.33315 12.55V3.244C7.33315 3.148 7.29715 3.058 7.22515 2.974C7.15315 2.89 7.06915 2.848 6.97315 2.848H3.87715C3.76915 2.848 3.67915 2.896 3.60715 2.992C3.54715 3.088 3.51715 3.19 3.51715 3.298V12.55C3.51715 12.67 3.47515 12.778 3.39115 12.874C3.30715 12.958 3.19915 13 3.06715 13H1.35715C1.22515 13 1.11715 12.958 1.03315 12.874C0.949148 12.778 0.907148 12.67 0.907148 12.55V0.688C0.907148 0.543999 0.949148 0.429999 1.03315 0.346C1.11715 0.261999 1.22515 0.219999 1.35715 0.219999H9.49315ZM15.092 9.868C14.996 9.868 14.912 9.91 14.84 9.994C14.768 10.078 14.732 10.174 14.732 10.282V12.55C14.732 12.67 14.69 12.778 14.606 12.874C14.522 12.958 14.414 13 14.282 13H12.572C12.44 13 12.332 12.958 12.248 12.874C12.164 12.778 12.122 12.67 12.122 12.55V0.688C12.122 0.543999 12.164 0.429999 12.248 0.346C12.332 0.261999 12.44 0.219999 12.572 0.219999H15.56C17.384 0.219999 18.782 0.609999 19.754 1.39C20.738 2.17 21.23 3.316 21.23 4.828C21.23 5.572 21.104 6.256 20.852 6.88C20.6 7.492 20.234 8.02 19.754 8.464C19.274 8.908 18.68 9.256 17.972 9.508C17.264 9.748 16.46 9.868 15.56 9.868H15.092ZM15.128 2.848C15.02 2.848 14.924 2.89 14.84 2.974C14.768 3.046 14.732 3.136 14.732 3.244V6.808C14.732 6.94 14.762 7.048 14.822 7.132C14.894 7.216 14.99 7.258 15.11 7.258H15.56C17.588 7.258 18.602 6.52 18.602 5.044C18.602 4.288 18.35 3.736 17.846 3.388C17.354 3.028 16.592 2.848 15.56 2.848H15.128ZM23.2946 0.219999C23.1626 0.219999 23.0546 0.261999 22.9706 0.346C22.8866 0.429999 22.8446 0.543999 22.8446 0.688V12.55C22.8446 12.67 22.8866 12.778 22.9706 12.874C23.0546 12.958 23.1626 13 23.2946 13H24.9146C25.1426 13 25.3046 12.928 25.4006 12.784L29.3246 6.232C29.3486 6.196 29.3846 6.172 29.4326 6.16C29.4806 6.136 29.5286 6.136 29.5766 6.16C29.6366 6.172 29.6846 6.214 29.7206 6.286C29.7566 6.346 29.7746 6.448 29.7746 6.592V12.55C29.7746 12.67 29.8166 12.778 29.9006 12.874C29.9846 12.958 30.0926 13 30.2246 13H31.9346C32.0666 13 32.1746 12.958 32.2586 12.874C32.3426 12.778 32.3846 12.67 32.3846 12.55V0.688C32.3846 0.543999 32.3426 0.429999 32.2586 0.346C32.1746 0.261999 32.0666 0.219999 31.9346 0.219999H30.2246C30.0686 0.219999 29.9246 0.309999 29.7926 0.489999L25.8866 7.006C25.8506 7.054 25.8086 7.096 25.7606 7.132C25.7126 7.156 25.6646 7.162 25.6166 7.15C25.5806 7.126 25.5446 7.084 25.5086 7.024C25.4726 6.952 25.4546 6.838 25.4546 6.682V0.688C25.4546 0.543999 25.4126 0.429999 25.3286 0.346C25.2446 0.261999 25.1366 0.219999 25.0046 0.219999H23.2946ZM42.2377 0.219999C42.3577 0.219999 42.4597 0.267999 42.5437 0.364C42.6397 0.447999 42.6877 0.555999 42.6877 0.688V2.38C42.6877 2.512 42.6397 2.626 42.5437 2.722C42.4597 2.806 42.3577 2.848 42.2377 2.848H37.5217C37.4257 2.848 37.3417 2.89 37.2697 2.974C37.1977 3.058 37.1617 3.148 37.1617 3.244V12.55C37.1617 12.67 37.1197 12.778 37.0357 12.874C36.9517 12.958 36.8437 13 36.7117 13H35.0017C34.8697 13 34.7617 12.958 34.6777 12.874C34.5937 12.778 34.5517 12.67 34.5517 12.55V0.688C34.5517 0.543999 34.5937 0.429999 34.6777 0.346C34.7617 0.261999 34.8697 0.219999 35.0017 0.219999H42.2377ZM43.4118 10.84C43.4118 10.708 43.4538 10.6 43.5378 10.516C43.6218 10.432 43.7298 10.39 43.8618 10.39C44.1978 10.39 44.4378 10.306 44.5818 10.138C44.7378 9.958 44.8338 9.682 44.8698 9.31C44.9178 8.926 44.9298 8.44 44.9058 7.852C44.8818 7.264 44.8698 6.55 44.8698 5.71V0.688C44.8698 0.543999 44.9118 0.429999 44.9958 0.346C45.0918 0.261999 45.2058 0.219999 45.3378 0.219999H52.5558C52.6878 0.219999 52.7958 0.261999 52.8798 0.346C52.9758 0.429999 53.0238 0.543999 53.0238 0.688V12.55C53.0238 12.67 52.9758 12.778 52.8798 12.874C52.7958 12.958 52.6878 13 52.5558 13H50.8638C50.7318 13 50.6178 12.958 50.5218 12.874C50.4378 12.778 50.3958 12.67 50.3958 12.55V3.298C50.3958 3.19 50.3598 3.088 50.2878 2.992C50.2158 2.896 50.1318 2.848 50.0358 2.848H47.8578C47.7618 2.848 47.6778 2.89 47.6058 2.974C47.5338 3.058 47.4978 3.148 47.4978 3.244V6.862C47.4978 7.762 47.4918 8.59 47.4798 9.346C47.4798 10.09 47.3778 10.732 47.1738 11.272C46.9698 11.812 46.6158 12.238 46.1118 12.55C45.6078 12.85 44.8578 13 43.8618 13C43.7298 13 43.6218 12.958 43.5378 12.874C43.4538 12.79 43.4118 12.682 43.4118 12.55V10.84ZM62.9284 13C62.8084 13 62.6704 12.994 62.5144 12.982C62.3704 12.958 62.2684 12.862 62.2084 12.694L61.5604 10.858C61.5124 10.726 61.4464 10.624 61.3624 10.552C61.2904 10.468 61.1884 10.426 61.0564 10.426H58.2124C58.1044 10.426 58.0084 10.468 57.9244 10.552C57.8524 10.636 57.8044 10.714 57.7804 10.786L57.1324 12.694C57.0724 12.862 56.9644 12.958 56.8084 12.982C56.6644 12.994 56.5324 13 56.4124 13H54.7744C54.6544 13 54.5644 12.94 54.5044 12.82C54.4564 12.7 54.4564 12.574 54.5044 12.442L58.6984 0.508C58.7224 0.435999 58.7824 0.369999 58.8784 0.309999C58.9744 0.249999 59.0704 0.219999 59.1664 0.219999H60.1924C60.2884 0.219999 60.3784 0.249999 60.4624 0.309999C60.5584 0.357999 60.6184 0.417999 60.6424 0.489999L64.8364 12.442C64.8844 12.562 64.8904 12.688 64.8544 12.82C64.8184 12.94 64.7224 13 64.5664 13H62.9284ZM59.0224 7.456C58.9984 7.54 59.0044 7.618 59.0404 7.69C59.0764 7.762 59.1964 7.798 59.4004 7.798H60.0664C60.2344 7.798 60.3244 7.768 60.3364 7.708C60.3604 7.636 60.3604 7.564 60.3364 7.492L59.9224 6.286C59.8744 6.154 59.7844 6.1 59.6524 6.124C59.5324 6.148 59.4544 6.214 59.4184 6.322L59.0224 7.456ZM65.9729 6.628C65.9729 5.716 66.1409 4.864 66.4769 4.072C66.8249 3.268 67.2929 2.572 67.8809 1.984C68.4809 1.384 69.1769 0.915999 69.9689 0.579999C70.7729 0.231999 71.6249 0.0579993 72.5249 0.0579993C73.4369 0.0579993 74.2769 0.213999 75.0449 0.526C75.8129 0.837999 76.4969 1.294 77.0969 1.894C77.1809 1.99 77.2229 2.098 77.2229 2.218C77.2349 2.338 77.1929 2.446 77.0969 2.542L75.9269 3.712C75.8309 3.808 75.7169 3.856 75.5849 3.856C75.4649 3.856 75.3569 3.808 75.2609 3.712C74.8769 3.4 74.4569 3.148 74.0009 2.956C73.5569 2.764 73.0649 2.668 72.5249 2.668C71.9609 2.668 71.4389 2.77 70.9589 2.974C70.4909 3.178 70.0769 3.46 69.7169 3.82C69.3689 4.168 69.0929 4.588 68.8889 5.08C68.6969 5.56 68.6009 6.076 68.6009 6.628C68.6009 7.192 68.6969 7.714 68.8889 8.194C69.0929 8.674 69.3689 9.094 69.7169 9.454C70.0769 9.802 70.4909 10.078 70.9589 10.282C71.4389 10.486 71.9609 10.588 72.5249 10.588C73.0649 10.588 73.5569 10.492 74.0009 10.3C74.4569 10.108 74.8769 9.856 75.2609 9.544C75.3569 9.448 75.4649 9.4 75.5849 9.4C75.7169 9.4 75.8309 9.448 75.9269 9.544L77.0969 10.714C77.1929 10.81 77.2349 10.918 77.2229 11.038C77.2229 11.158 77.1809 11.266 77.0969 11.362C76.4969 11.962 75.8129 12.418 75.0449 12.73C74.2769 13.042 73.4369 13.198 72.5249 13.198C71.6249 13.198 70.7729 13.03 69.9689 12.694C69.1769 12.346 68.4809 11.878 67.8809 11.29C67.2929 10.69 66.8249 9.994 66.4769 9.202C66.1409 8.398 65.9729 7.54 65.9729 6.628ZM79.4919 0.219999C79.3599 0.219999 79.2519 0.261999 79.1679 0.346C79.0839 0.429999 79.0419 0.543999 79.0419 0.688V12.55C79.0419 12.67 79.0839 12.778 79.1679 12.874C79.2519 12.958 79.3599 13 79.4919 13H81.1119C81.3399 13 81.5019 12.928 81.5979 12.784L85.5219 6.232C85.5459 6.196 85.5819 6.172 85.6299 6.16C85.6779 6.136 85.7259 6.136 85.7739 6.16C85.8339 6.172 85.8819 6.214 85.9179 6.286C85.9539 6.346 85.9719 6.448 85.9719 6.592V12.55C85.9719 12.67 86.0139 12.778 86.0979 12.874C86.1819 12.958 86.2899 13 86.4219 13H88.1319C88.2639 13 88.3719 12.958 88.4559 12.874C88.5399 12.778 88.5819 12.67 88.5819 12.55V0.688C88.5819 0.543999 88.5399 0.429999 88.4559 0.346C88.3719 0.261999 88.2639 0.219999 88.1319 0.219999H86.4219C86.2659 0.219999 86.1219 0.309999 85.9899 0.489999L82.0839 7.006C82.0479 7.054 82.0059 7.096 81.9579 7.132C81.9099 7.156 81.8619 7.162 81.8139 7.15C81.7779 7.126 81.7419 7.084 81.7059 7.024C81.6699 6.952 81.6519 6.838 81.6519 6.682V0.688C81.6519 0.543999 81.6099 0.429999 81.5259 0.346C81.4419 0.261999 81.3339 0.219999 81.2019 0.219999H79.4919ZM90.0289 0.688C90.0289 0.555999 90.0709 0.447999 90.1549 0.364C90.2389 0.267999 90.3469 0.219999 90.4789 0.219999H98.6329C98.7529 0.219999 98.8549 0.267999 98.9389 0.364C99.0349 0.447999 99.0829 0.555999 99.0829 0.688V2.38C99.0829 2.512 99.0349 2.626 98.9389 2.722C98.8549 2.806 98.7529 2.848 98.6329 2.848H96.2389C96.1309 2.848 96.0409 2.89 95.9689 2.974C95.8969 3.058 95.8609 3.148 95.8609 3.244V12.55C95.8609 12.67 95.8189 12.778 95.7349 12.874C95.6509 12.958 95.5429 13 95.4109 13H93.7009C93.5689 13 93.4609 12.958 93.3769 12.874C93.2929 12.778 93.2509 12.67 93.2509 12.55V3.298C93.2509 3.19 93.2149 3.088 93.1429 2.992C93.0709 2.896 92.9869 2.848 92.8909 2.848H90.4789C90.3469 2.848 90.2389 2.806 90.1549 2.722C90.0709 2.626 90.0289 2.512 90.0289 2.38V0.688ZM103.96 4.54C104.728 4.54 105.454 4.624 106.138 4.792C106.834 4.96 107.44 5.218 107.956 5.566C108.472 5.914 108.88 6.352 109.18 6.88C109.48 7.408 109.63 8.038 109.63 8.77C109.63 9.49 109.48 10.12 109.18 10.66C108.88 11.188 108.472 11.626 107.956 11.974C107.44 12.322 106.834 12.58 106.138 12.748C105.454 12.916 104.728 13 103.96 13H100.972C100.84 13 100.732 12.958 100.648 12.874C100.564 12.79 100.522 12.682 100.522 12.55V0.688C100.522 0.555999 100.564 0.447999 100.648 0.364C100.744 0.267999 100.852 0.219999 100.972 0.219999H102.682C102.814 0.219999 102.922 0.267999 103.006 0.364C103.09 0.447999 103.132 0.555999 103.132 0.688V4.072C103.132 4.204 103.168 4.318 103.24 4.414C103.312 4.498 103.414 4.54 103.546 4.54H103.96ZM103.96 10.39C104.404 10.39 104.812 10.366 105.184 10.318C105.568 10.258 105.892 10.168 106.156 10.048C106.432 9.916 106.642 9.748 106.786 9.544C106.942 9.34 107.02 9.082 107.02 8.77C107.02 8.458 106.942 8.2 106.786 7.996C106.642 7.792 106.432 7.63 106.156 7.51C105.892 7.378 105.568 7.288 105.184 7.24C104.812 7.18 104.404 7.15 103.96 7.15H103.528C103.408 7.15 103.312 7.192 103.24 7.276C103.168 7.348 103.132 7.438 103.132 7.546V9.994C103.132 10.258 103.264 10.39 103.528 10.39H103.96ZM32.8474 21.22C32.9554 21.22 33.0514 21.262 33.1354 21.346C33.2194 21.43 33.2614 21.526 33.2614 21.634V30.922C33.2614 31.042 33.2914 31.15 33.3514 31.246C33.4234 31.342 33.5134 31.39 33.6214 31.39C33.7894 31.39 33.9214 31.426 34.0174 31.498C34.1134 31.57 34.1614 31.666 34.1614 31.786V35.368C34.1614 35.488 34.1194 35.59 34.0354 35.674C33.9514 35.77 33.8434 35.818 33.7114 35.818H32.0014C31.8694 35.818 31.7614 35.77 31.6774 35.674C31.5934 35.59 31.5514 35.488 31.5514 35.368V34.45C31.5514 34.342 31.5154 34.24 31.4434 34.144C31.3714 34.048 31.2874 34 31.1914 34H26.6374C26.5414 34 26.4574 34.036 26.3854 34.108C26.3134 34.192 26.2774 34.282 26.2774 34.378V35.368C26.2774 35.488 26.2294 35.59 26.1334 35.674C26.0494 35.77 25.9414 35.818 25.8094 35.818H24.1174C23.9854 35.818 23.8714 35.77 23.7754 35.674C23.6914 35.59 23.6494 35.488 23.6494 35.368V31.84C23.6494 31.708 23.6914 31.6 23.7754 31.516C23.8714 31.432 23.9854 31.39 24.1174 31.39H25.0174C25.3534 31.39 25.5934 31.21 25.7374 30.85C25.8814 30.478 25.9714 29.992 26.0074 29.392C26.0554 28.792 26.0674 28.102 26.0434 27.322C26.0314 26.53 26.0254 25.72 26.0254 24.892V21.688C26.0254 21.544 26.0674 21.43 26.1514 21.346C26.2354 21.262 26.3434 21.22 26.4754 21.22H32.8474ZM30.2734 31.39C30.3814 31.39 30.4654 31.342 30.5254 31.246C30.5974 31.15 30.6334 31.042 30.6334 30.922V24.244C30.6334 24.148 30.5974 24.058 30.5254 23.974C30.4534 23.89 30.3694 23.848 30.2734 23.848H29.0134C28.9174 23.848 28.8274 23.89 28.7434 23.974C28.6714 24.058 28.6354 24.148 28.6354 24.244V25.144C28.6354 25.648 28.6354 26.164 28.6354 26.692C28.6474 27.22 28.6474 27.736 28.6354 28.24C28.6354 28.744 28.6114 29.23 28.5634 29.698C28.5154 30.166 28.4374 30.598 28.3294 30.994C28.2694 31.138 28.2874 31.24 28.3834 31.3C28.4914 31.36 28.5934 31.39 28.6894 31.39H30.2734ZM38.7434 30.868C38.6474 30.868 38.5634 30.91 38.4914 30.994C38.4194 31.078 38.3834 31.174 38.3834 31.282V33.55C38.3834 33.67 38.3414 33.778 38.2574 33.874C38.1734 33.958 38.0654 34 37.9334 34H36.2234C36.0914 34 35.9834 33.958 35.8994 33.874C35.8154 33.778 35.7734 33.67 35.7734 33.55V21.688C35.7734 21.544 35.8154 21.43 35.8994 21.346C35.9834 21.262 36.0914 21.22 36.2234 21.22H39.2114C41.0354 21.22 42.4334 21.61 43.4054 22.39C44.3894 23.17 44.8814 24.316 44.8814 25.828C44.8814 26.572 44.7554 27.256 44.5034 27.88C44.2514 28.492 43.8854 29.02 43.4054 29.464C42.9254 29.908 42.3314 30.256 41.6234 30.508C40.9154 30.748 40.1114 30.868 39.2114 30.868H38.7434ZM38.7794 23.848C38.6714 23.848 38.5754 23.89 38.4914 23.974C38.4194 24.046 38.3834 24.136 38.3834 24.244V27.808C38.3834 27.94 38.4134 28.048 38.4734 28.132C38.5454 28.216 38.6414 28.258 38.7614 28.258H39.2114C41.2394 28.258 42.2534 27.52 42.2534 26.044C42.2534 25.288 42.0014 24.736 41.4974 24.388C41.0054 24.028 40.2434 23.848 39.2114 23.848H38.7794ZM47.792 34H47.576C47.444 34 47.336 33.958 47.252 33.874C47.168 33.79 47.126 33.682 47.126 33.55V31.84C47.126 31.708 47.168 31.6 47.252 31.516C47.336 31.432 47.444 31.39 47.576 31.39L48.206 31.372C48.458 31.324 48.638 31.174 48.746 30.922L49.034 30.13C49.094 29.998 49.13 29.854 49.142 29.698C49.166 29.53 49.13 29.344 49.034 29.14L45.83 21.796C45.77 21.664 45.764 21.538 45.812 21.418C45.872 21.286 45.968 21.22 46.1 21.22H47.738C47.942 21.22 48.098 21.244 48.206 21.292C48.314 21.328 48.398 21.412 48.458 21.544L50.24 25.576C50.288 25.684 50.36 25.72 50.456 25.684C50.564 25.636 50.63 25.582 50.654 25.522L52.076 21.544C52.124 21.412 52.202 21.328 52.31 21.292C52.43 21.244 52.592 21.22 52.796 21.22H54.434C54.566 21.22 54.656 21.286 54.704 21.418C54.752 21.538 54.752 21.664 54.704 21.796L50.942 32.452C50.774 32.956 50.504 33.34 50.132 33.604C49.76 33.868 49.208 34 48.476 34H47.792ZM55.8216 24.766C55.8216 24.118 55.9476 23.56 56.1996 23.092C56.4636 22.624 56.7936 22.24 57.1896 21.94C57.5976 21.628 58.0476 21.4 58.5396 21.256C59.0316 21.112 59.5116 21.04 59.9796 21.04C60.4116 21.04 60.8736 21.112 61.3656 21.256C61.8576 21.388 62.3076 21.604 62.7156 21.904C63.1356 22.192 63.4776 22.576 63.7416 23.056C64.0176 23.524 64.1556 24.094 64.1556 24.766C64.1556 25.318 64.0476 25.804 63.8316 26.224C63.6156 26.632 63.3396 27.016 63.0036 27.376C62.8476 27.556 62.8536 27.724 63.0216 27.88C63.3696 28.216 63.6456 28.594 63.8496 29.014C64.0536 29.434 64.1556 29.914 64.1556 30.454C64.1556 31.126 64.0176 31.702 63.7416 32.182C63.4776 32.65 63.1356 33.034 62.7156 33.334C62.3076 33.622 61.8576 33.838 61.3656 33.982C60.8736 34.114 60.4116 34.18 59.9796 34.18C59.5116 34.18 59.0316 34.108 58.5396 33.964C58.0476 33.82 57.5976 33.598 57.1896 33.298C56.7936 32.986 56.4636 32.596 56.1996 32.128C55.9476 31.66 55.8216 31.102 55.8216 30.454C55.8216 30.334 55.8636 30.232 55.9476 30.148C56.0436 30.052 56.1576 30.004 56.2896 30.004H57.9816C58.1136 30.004 58.2216 30.052 58.3056 30.148C58.4016 30.232 58.4496 30.334 58.4496 30.454C58.4496 30.718 58.5276 30.94 58.6836 31.12C58.8396 31.288 59.0316 31.414 59.2596 31.498C59.4876 31.57 59.7336 31.606 59.9976 31.606C60.2616 31.594 60.5076 31.546 60.7356 31.462C60.9636 31.366 61.1496 31.234 61.2936 31.066C61.4496 30.898 61.5276 30.694 61.5276 30.454C61.5276 30.238 61.4916 30.04 61.4196 29.86C61.3476 29.668 61.2276 29.506 61.0596 29.374C60.8916 29.23 60.6636 29.122 60.3756 29.05C60.0876 28.966 59.7276 28.924 59.2956 28.924H58.6836C58.5396 28.924 58.4256 28.882 58.3416 28.798C58.2576 28.702 58.2156 28.588 58.2156 28.456V26.764C58.2156 26.632 58.2576 26.524 58.3416 26.44C58.4256 26.344 58.5396 26.296 58.6836 26.296H59.2416C60.0336 26.296 60.6096 26.152 60.9696 25.864C61.3416 25.564 61.5276 25.198 61.5276 24.766C61.5276 24.514 61.4496 24.304 61.2936 24.136C61.1496 23.968 60.9636 23.848 60.7356 23.776C60.5076 23.692 60.2556 23.65 59.9796 23.65C59.7156 23.65 59.4696 23.698 59.2416 23.794C59.0136 23.878 58.8216 24.004 58.6656 24.172C58.5216 24.328 58.4496 24.526 58.4496 24.766C58.4496 24.886 58.4016 24.994 58.3056 25.09C58.2216 25.174 58.1136 25.216 57.9816 25.216H56.2896C56.1576 25.216 56.0436 25.174 55.9476 25.09C55.8636 24.994 55.8216 24.886 55.8216 24.766ZM73.641 21.22C73.761 21.22 73.863 21.268 73.947 21.364C74.043 21.448 74.091 21.556 74.091 21.688V23.38C74.091 23.512 74.043 23.626 73.947 23.722C73.863 23.806 73.761 23.848 73.641 23.848H68.925C68.817 23.848 68.727 23.896 68.655 23.992C68.595 24.088 68.565 24.19 68.565 24.298V26.08C68.565 26.212 68.595 26.326 68.655 26.422C68.727 26.506 68.817 26.548 68.925 26.548H73.641C73.761 26.548 73.863 26.59 73.947 26.674C74.043 26.758 74.091 26.866 74.091 26.998V28.708C74.091 28.84 74.043 28.948 73.947 29.032C73.863 29.116 73.761 29.158 73.641 29.158H68.925C68.829 29.158 68.745 29.2 68.673 29.284C68.601 29.356 68.565 29.446 68.565 29.554V30.994C68.565 31.114 68.601 31.21 68.673 31.282C68.757 31.354 68.847 31.39 68.943 31.39H73.641C73.761 31.39 73.863 31.432 73.947 31.516C74.043 31.6 74.091 31.708 74.091 31.84V33.55C74.091 33.682 74.043 33.79 73.947 33.874C73.863 33.958 73.761 34 73.641 34H66.405C66.273 34 66.165 33.958 66.081 33.874C65.997 33.778 65.955 33.67 65.955 33.55V21.688C65.955 21.544 65.997 21.43 66.081 21.346C66.165 21.262 66.273 21.22 66.405 21.22H73.641ZM76.7058 21.22C76.5738 21.22 76.4658 21.262 76.3818 21.346C76.2978 21.43 76.2558 21.544 76.2558 21.688V33.55C76.2558 33.67 76.2978 33.778 76.3818 33.874C76.4658 33.958 76.5738 34 76.7058 34H78.3258C78.5538 34 78.7158 33.928 78.8118 33.784L82.7358 27.232C82.7598 27.196 82.7958 27.172 82.8438 27.16C82.8918 27.136 82.9398 27.136 82.9878 27.16C83.0478 27.172 83.0958 27.214 83.1318 27.286C83.1678 27.346 83.1858 27.448 83.1858 27.592V33.55C83.1858 33.67 83.2278 33.778 83.3118 33.874C83.3958 33.958 83.5038 34 83.6358 34H85.3458C85.4778 34 85.5858 33.958 85.6698 33.874C85.7538 33.778 85.7958 33.67 85.7958 33.55V21.688C85.7958 21.544 85.7538 21.43 85.6698 21.346C85.5858 21.262 85.4778 21.22 85.3458 21.22H83.6358C83.4798 21.22 83.3358 21.31 83.2038 21.49L79.2978 28.006C79.2618 28.054 79.2198 28.096 79.1718 28.132C79.1238 28.156 79.0758 28.162 79.0278 28.15C78.9918 28.126 78.9558 28.084 78.9198 28.024C78.8838 27.952 78.8658 27.838 78.8658 27.682V21.688C78.8658 21.544 78.8238 21.43 78.7398 21.346C78.6558 21.262 78.5478 21.22 78.4158 21.22H76.7058ZM80.0538 16.936C80.1858 16.936 80.2938 16.978 80.3778 17.062C80.4618 17.146 80.5038 17.254 80.5038 17.386C80.5038 17.638 80.5698 17.812 80.7018 17.908C80.8458 17.992 80.9958 18.034 81.1518 18.034C81.3198 18.034 81.4698 17.992 81.6018 17.908C81.7458 17.812 81.8178 17.638 81.8178 17.386C81.8178 17.254 81.8598 17.146 81.9438 17.062C82.0398 16.978 82.1538 16.936 82.2858 16.936H83.6178C83.7498 16.936 83.8578 16.978 83.9418 17.062C84.0378 17.146 84.0858 17.254 84.0858 17.386C84.0858 17.794 84.0078 18.178 83.8518 18.538C83.7078 18.886 83.5038 19.192 83.2398 19.456C82.9758 19.708 82.6638 19.912 82.3038 20.068C81.9438 20.212 81.5598 20.284 81.1518 20.284C80.7438 20.284 80.3598 20.212 79.9998 20.068C79.6518 19.912 79.3458 19.708 79.0818 19.456C78.8298 19.192 78.6258 18.886 78.4698 18.538C78.3258 18.178 78.2538 17.794 78.2538 17.386C78.2538 17.254 78.2958 17.146 78.3798 17.062C78.4638 16.978 78.5718 16.936 78.7038 16.936H80.0538Z" fill="#939393"/>
</svg>
