<svg width="58" height="19" viewBox="0 0 58 19" fill="none" xmlns="http://www.w3.org/2000/svg">
<path d="M4.33103 0.232558C4.39703 0.232558 4.45103 0.253558 4.49303 0.295559C4.54103 0.337558 4.56503 0.394558 4.56503 0.466558V6.39756C4.56503 6.45756 4.54103 6.51156 4.49303 6.55956C4.45103 6.60156 4.39703 6.62256 4.33103 6.62256H3.48503C3.41903 6.62256 3.36203 6.60156 3.31403 6.55956C3.27203 6.51156 3.25103 6.45756 3.25103 6.39756V1.74456C3.25103 1.69656 3.23303 1.65156 3.19703 1.60956C3.16103 1.56756 3.11903 1.54656 3.07103 1.54656H1.52303C1.46903 1.54656 1.42403 1.57056 1.38803 1.61856C1.35803 1.66656 1.34303 1.71756 1.34303 1.77156V6.39756C1.34303 6.45756 1.32203 6.51156 1.28003 6.55956C1.23803 6.60156 1.18403 6.62256 1.11803 6.62256H0.263028C0.197028 6.62256 0.143028 6.60156 0.101028 6.55956C0.0590278 6.51156 0.0380278 6.45756 0.0380278 6.39756V0.466558C0.0380278 0.394558 0.0590278 0.337558 0.101028 0.295559C0.143028 0.253558 0.197028 0.232558 0.263028 0.232558H4.33103ZM7.44545 5.05656C7.39745 5.05656 7.35545 5.07756 7.31945 5.11956C7.28345 5.16156 7.26545 5.20956 7.26545 5.26356V6.39756C7.26545 6.45756 7.24445 6.51156 7.20245 6.55956C7.16045 6.60156 7.10645 6.62256 7.04045 6.62256H6.18545C6.11945 6.62256 6.06545 6.60156 6.02345 6.55956C5.98145 6.51156 5.96045 6.45756 5.96045 6.39756V0.466558C5.96045 0.394558 5.98145 0.337558 6.02345 0.295559C6.06545 0.253558 6.11945 0.232558 6.18545 0.232558H7.67945C8.59145 0.232558 9.29045 0.427558 9.77645 0.817558C10.2685 1.20756 10.5145 1.78056 10.5145 2.53656C10.5145 2.90856 10.4515 3.25056 10.3255 3.56256C10.1995 3.86856 10.0165 4.13256 9.77645 4.35456C9.53645 4.57656 9.23945 4.75056 8.88545 4.87656C8.53145 4.99656 8.12945 5.05656 7.67945 5.05656H7.44545ZM7.46345 1.54656C7.40945 1.54656 7.36145 1.56756 7.31945 1.60956C7.28345 1.64556 7.26545 1.69056 7.26545 1.74456V3.52656C7.26545 3.59256 7.28045 3.64656 7.31045 3.68856C7.34645 3.73056 7.39445 3.75156 7.45445 3.75156H7.67945C8.69345 3.75156 9.20045 3.38256 9.20045 2.64456C9.20045 2.26656 9.07445 1.99056 8.82245 1.81656C8.57645 1.63656 8.19545 1.54656 7.67945 1.54656H7.46345ZM11.8618 0.232558C11.7958 0.232558 11.7418 0.253558 11.6998 0.295559C11.6578 0.337558 11.6368 0.394558 11.6368 0.466558V6.39756C11.6368 6.45756 11.6578 6.51156 11.6998 6.55956C11.7418 6.60156 11.7958 6.62256 11.8618 6.62256H12.6718C12.7858 6.62256 12.8668 6.58656 12.9148 6.51456L14.8768 3.23856C14.8888 3.22056 14.9068 3.20856 14.9308 3.20256C14.9548 3.19056 14.9788 3.19056 15.0028 3.20256C15.0328 3.20856 15.0568 3.22956 15.0748 3.26556C15.0928 3.29556 15.1018 3.34656 15.1018 3.41856V6.39756C15.1018 6.45756 15.1228 6.51156 15.1648 6.55956C15.2068 6.60156 15.2608 6.62256 15.3268 6.62256H16.1818C16.2478 6.62256 16.3018 6.60156 16.3438 6.55956C16.3858 6.51156 16.4068 6.45756 16.4068 6.39756V0.466558C16.4068 0.394558 16.3858 0.337558 16.3438 0.295559C16.3018 0.253558 16.2478 0.232558 16.1818 0.232558H15.3268C15.2488 0.232558 15.1768 0.277558 15.1108 0.367558L13.1578 3.62556C13.1398 3.64956 13.1188 3.67056 13.0948 3.68856C13.0708 3.70056 13.0468 3.70356 13.0228 3.69756C13.0048 3.68556 12.9868 3.66456 12.9688 3.63456C12.9508 3.59856 12.9418 3.54156 12.9418 3.46356V0.466558C12.9418 0.394558 12.9208 0.337558 12.8788 0.295559C12.8368 0.253558 12.7828 0.232558 12.7168 0.232558H11.8618ZM21.6483 0.232558C21.7083 0.232558 21.7593 0.256558 21.8013 0.304558C21.8493 0.346558 21.8733 0.400558 21.8733 0.466558V1.31256C21.8733 1.37856 21.8493 1.43556 21.8013 1.48356C21.7593 1.52556 21.7083 1.54656 21.6483 1.54656H19.2903C19.2423 1.54656 19.2003 1.56756 19.1643 1.60956C19.1283 1.65156 19.1103 1.69656 19.1103 1.74456V6.39756C19.1103 6.45756 19.0893 6.51156 19.0473 6.55956C19.0053 6.60156 18.9513 6.62256 18.8853 6.62256H18.0303C17.9643 6.62256 17.9103 6.60156 17.8683 6.55956C17.8263 6.51156 17.8053 6.45756 17.8053 6.39756V0.466558C17.8053 0.394558 17.8263 0.337558 17.8683 0.295559C17.9103 0.253558 17.9643 0.232558 18.0303 0.232558H21.6483ZM22.5503 5.54256C22.5503 5.47656 22.5713 5.42256 22.6133 5.38056C22.6553 5.33856 22.7093 5.31756 22.7753 5.31756C22.9433 5.31756 23.0633 5.27556 23.1353 5.19156C23.2133 5.10156 23.2613 4.96356 23.2793 4.77756C23.3033 4.58556 23.3093 4.34256 23.2973 4.04856C23.2853 3.75456 23.2793 3.39756 23.2793 2.97756V0.466558C23.2793 0.394558 23.3003 0.337558 23.3423 0.295559C23.3903 0.253558 23.4473 0.232558 23.5133 0.232558H27.1223C27.1883 0.232558 27.2423 0.253558 27.2843 0.295559C27.3323 0.337558 27.3563 0.394558 27.3563 0.466558V6.39756C27.3563 6.45756 27.3323 6.51156 27.2843 6.55956C27.2423 6.60156 27.1883 6.62256 27.1223 6.62256H26.2763C26.2103 6.62256 26.1533 6.60156 26.1053 6.55956C26.0633 6.51156 26.0423 6.45756 26.0423 6.39756V1.77156C26.0423 1.71756 26.0243 1.66656 25.9883 1.61856C25.9523 1.57056 25.9103 1.54656 25.8623 1.54656H24.7733C24.7253 1.54656 24.6833 1.56756 24.6473 1.60956C24.6113 1.65156 24.5933 1.69656 24.5933 1.74456V3.55356C24.5933 4.00356 24.5903 4.41756 24.5843 4.79556C24.5843 5.16756 24.5333 5.48856 24.4313 5.75856C24.3293 6.02856 24.1523 6.24156 23.9003 6.39756C23.6483 6.54756 23.2733 6.62256 22.7753 6.62256C22.7093 6.62256 22.6553 6.60156 22.6133 6.55956C22.5713 6.51756 22.5503 6.46356 22.5503 6.39756V5.54256ZM32.6237 6.62256C32.5637 6.62256 32.4947 6.61956 32.4167 6.61356C32.3447 6.60156 32.2937 6.55356 32.2637 6.46956L31.9397 5.55156C31.9157 5.48556 31.8827 5.43456 31.8407 5.39856C31.8047 5.35656 31.7537 5.33556 31.6877 5.33556H30.2657C30.2117 5.33556 30.1637 5.35656 30.1217 5.39856C30.0857 5.44056 30.0617 5.47956 30.0497 5.51556L29.7257 6.46956C29.6957 6.55356 29.6417 6.60156 29.5637 6.61356C29.4917 6.61956 29.4257 6.62256 29.3657 6.62256H28.5467C28.4867 6.62256 28.4417 6.59256 28.4117 6.53256C28.3877 6.47256 28.3877 6.40956 28.4117 6.34356L30.5087 0.376559C30.5207 0.340558 30.5507 0.307558 30.5987 0.277558C30.6467 0.247558 30.6947 0.232558 30.7427 0.232558H31.2557C31.3037 0.232558 31.3487 0.247558 31.3907 0.277558C31.4387 0.301558 31.4687 0.331558 31.4807 0.367558L33.5777 6.34356C33.6017 6.40356 33.6047 6.46656 33.5867 6.53256C33.5687 6.59256 33.5207 6.62256 33.4427 6.62256H32.6237ZM30.6707 3.85056C30.6587 3.89256 30.6617 3.93156 30.6797 3.96756C30.6977 4.00356 30.7577 4.02156 30.8597 4.02156H31.1927C31.2767 4.02156 31.3217 4.00656 31.3277 3.97656C31.3397 3.94056 31.3397 3.90456 31.3277 3.86856L31.1207 3.26556C31.0967 3.19956 31.0517 3.17256 30.9857 3.18456C30.9257 3.19656 30.8867 3.22956 30.8687 3.28356L30.6707 3.85056ZM34.4609 3.43656C34.4609 2.98056 34.5449 2.55456 34.7129 2.15856C34.8869 1.75656 35.1209 1.40856 35.4149 1.11456C35.7149 0.814558 36.0629 0.580558 36.4589 0.412558C36.8609 0.238558 37.2869 0.151558 37.7369 0.151558C38.1929 0.151558 38.6129 0.229558 38.9969 0.385558C39.3809 0.541558 39.7229 0.769558 40.0229 1.06956C40.0649 1.11756 40.0859 1.17156 40.0859 1.23156C40.0919 1.29156 40.0709 1.34556 40.0229 1.39356L39.4379 1.97856C39.3899 2.02656 39.3329 2.05056 39.2669 2.05056C39.2069 2.05056 39.1529 2.02656 39.1049 1.97856C38.9129 1.82256 38.7029 1.69656 38.4749 1.60056C38.2529 1.50456 38.0069 1.45656 37.7369 1.45656C37.4549 1.45656 37.1939 1.50756 36.9539 1.60956C36.7199 1.71156 36.5129 1.85256 36.3329 2.03256C36.1589 2.20656 36.0209 2.41656 35.9189 2.66256C35.8229 2.90256 35.7749 3.16056 35.7749 3.43656C35.7749 3.71856 35.8229 3.97956 35.9189 4.21956C36.0209 4.45956 36.1589 4.66956 36.3329 4.84956C36.5129 5.02356 36.7199 5.16156 36.9539 5.26356C37.1939 5.36556 37.4549 5.41656 37.7369 5.41656C38.0069 5.41656 38.2529 5.36856 38.4749 5.27256C38.7029 5.17656 38.9129 5.05056 39.1049 4.89456C39.1529 4.84656 39.2069 4.82256 39.2669 4.82256C39.3329 4.82256 39.3899 4.84656 39.4379 4.89456L40.0229 5.47956C40.0709 5.52756 40.0919 5.58156 40.0859 5.64156C40.0859 5.70156 40.0649 5.75556 40.0229 5.80356C39.7229 6.10356 39.3809 6.33156 38.9969 6.48756C38.6129 6.64356 38.1929 6.72156 37.7369 6.72156C37.2869 6.72156 36.8609 6.63756 36.4589 6.46956C36.0629 6.29556 35.7149 6.06156 35.4149 5.76756C35.1209 5.46756 34.8869 5.11956 34.7129 4.72356C34.5449 4.32156 34.4609 3.89256 34.4609 3.43656ZM41.5354 0.232558C41.4694 0.232558 41.4154 0.253558 41.3734 0.295559C41.3314 0.337558 41.3104 0.394558 41.3104 0.466558V6.39756C41.3104 6.45756 41.3314 6.51156 41.3734 6.55956C41.4154 6.60156 41.4694 6.62256 41.5354 6.62256H42.3454C42.4594 6.62256 42.5404 6.58656 42.5884 6.51456L44.5504 3.23856C44.5624 3.22056 44.5804 3.20856 44.6044 3.20256C44.6284 3.19056 44.6524 3.19056 44.6764 3.20256C44.7064 3.20856 44.7304 3.22956 44.7484 3.26556C44.7664 3.29556 44.7754 3.34656 44.7754 3.41856V6.39756C44.7754 6.45756 44.7964 6.51156 44.8384 6.55956C44.8804 6.60156 44.9344 6.62256 45.0004 6.62256H45.8554C45.9214 6.62256 45.9754 6.60156 46.0174 6.55956C46.0594 6.51156 46.0804 6.45756 46.0804 6.39756V0.466558C46.0804 0.394558 46.0594 0.337558 46.0174 0.295559C45.9754 0.253558 45.9214 0.232558 45.8554 0.232558H45.0004C44.9224 0.232558 44.8504 0.277558 44.7844 0.367558L42.8314 3.62556C42.8134 3.64956 42.7924 3.67056 42.7684 3.68856C42.7444 3.70056 42.7204 3.70356 42.6964 3.69756C42.6784 3.68556 42.6604 3.66456 42.6424 3.63456C42.6244 3.59856 42.6154 3.54156 42.6154 3.46356V0.466558C42.6154 0.394558 42.5944 0.337558 42.5524 0.295559C42.5104 0.253558 42.4564 0.232558 42.3904 0.232558H41.5354ZM47.1189 0.466558C47.1189 0.400558 47.1399 0.346558 47.1819 0.304558C47.2239 0.256558 47.2779 0.232558 47.3439 0.232558H51.4209C51.4809 0.232558 51.5319 0.256558 51.5739 0.304558C51.6219 0.346558 51.6459 0.400558 51.6459 0.466558V1.31256C51.6459 1.37856 51.6219 1.43556 51.5739 1.48356C51.5319 1.52556 51.4809 1.54656 51.4209 1.54656H50.2239C50.1699 1.54656 50.1249 1.56756 50.0889 1.60956C50.0529 1.65156 50.0349 1.69656 50.0349 1.74456V6.39756C50.0349 6.45756 50.0139 6.51156 49.9719 6.55956C49.9299 6.60156 49.8759 6.62256 49.8099 6.62256H48.9549C48.8889 6.62256 48.8349 6.60156 48.7929 6.55956C48.7509 6.51156 48.7299 6.45756 48.7299 6.39756V1.77156C48.7299 1.71756 48.7119 1.66656 48.6759 1.61856C48.6399 1.57056 48.5979 1.54656 48.5499 1.54656H47.3439C47.2779 1.54656 47.2239 1.52556 47.1819 1.48356C47.1399 1.43556 47.1189 1.37856 47.1189 1.31256V0.466558ZM54.3996 2.39256C54.7836 2.39256 55.1466 2.43456 55.4886 2.51856C55.8366 2.60256 56.1396 2.73156 56.3976 2.90556C56.6556 3.07956 56.8596 3.29856 57.0096 3.56256C57.1596 3.82656 57.2346 4.14156 57.2346 4.50756C57.2346 4.86756 57.1596 5.18256 57.0096 5.45256C56.8596 5.71656 56.6556 5.93556 56.3976 6.10956C56.1396 6.28356 55.8366 6.41256 55.4886 6.49656C55.1466 6.58056 54.7836 6.62256 54.3996 6.62256H52.9056C52.8396 6.62256 52.7856 6.60156 52.7436 6.55956C52.7016 6.51756 52.6806 6.46356 52.6806 6.39756V0.466558C52.6806 0.400558 52.7016 0.346558 52.7436 0.304558C52.7916 0.256558 52.8456 0.232558 52.9056 0.232558H53.7606C53.8266 0.232558 53.8806 0.256558 53.9226 0.304558C53.9646 0.346558 53.9856 0.400558 53.9856 0.466558V2.15856C53.9856 2.22456 54.0036 2.28156 54.0396 2.32956C54.0756 2.37156 54.1266 2.39256 54.1926 2.39256H54.3996ZM54.3996 5.31756C54.6216 5.31756 54.8256 5.30556 55.0116 5.28156C55.2036 5.25156 55.3656 5.20656 55.4976 5.14656C55.6356 5.08056 55.7406 4.99656 55.8126 4.89456C55.8906 4.79256 55.9296 4.66356 55.9296 4.50756C55.9296 4.35156 55.8906 4.22256 55.8126 4.12056C55.7406 4.01856 55.6356 3.93756 55.4976 3.87756C55.3656 3.81156 55.2036 3.76656 55.0116 3.74256C54.8256 3.71256 54.6216 3.69756 54.3996 3.69756H54.1836C54.1236 3.69756 54.0756 3.71856 54.0396 3.76056C54.0036 3.79656 53.9856 3.84156 53.9856 3.89556V5.11956C53.9856 5.25156 54.0516 5.31756 54.1836 5.31756H54.3996ZM16.6381 11.2326C16.6921 11.2326 16.7401 11.2536 16.7821 11.2956C16.8241 11.3376 16.8451 11.3856 16.8451 11.4396V16.0836C16.8451 16.1436 16.8601 16.1976 16.8901 16.2456C16.9261 16.2936 16.9711 16.3176 17.0251 16.3176C17.1091 16.3176 17.1751 16.3356 17.2231 16.3716C17.2711 16.4076 17.2951 16.4556 17.2951 16.5156V18.3066C17.2951 18.3666 17.2741 18.4176 17.2321 18.4596C17.1901 18.5076 17.1361 18.5316 17.0701 18.5316H16.2151C16.1491 18.5316 16.0951 18.5076 16.0531 18.4596C16.0111 18.4176 15.9901 18.3666 15.9901 18.3066V17.8476C15.9901 17.7936 15.9721 17.7426 15.9361 17.6946C15.9001 17.6466 15.8581 17.6226 15.8101 17.6226H13.5331C13.4851 17.6226 13.4431 17.6406 13.4071 17.6766C13.3711 17.7186 13.3531 17.7636 13.3531 17.8116V18.3066C13.3531 18.3666 13.3291 18.4176 13.2811 18.4596C13.2391 18.5076 13.1851 18.5316 13.1191 18.5316H12.2731C12.2071 18.5316 12.1501 18.5076 12.1021 18.4596C12.0601 18.4176 12.0391 18.3666 12.0391 18.3066V16.5426C12.0391 16.4766 12.0601 16.4226 12.1021 16.3806C12.1501 16.3386 12.2071 16.3176 12.2731 16.3176H12.7231C12.8911 16.3176 13.0111 16.2276 13.0831 16.0476C13.1551 15.8616 13.2001 15.6186 13.2181 15.3186C13.2421 15.0186 13.2481 14.6736 13.2361 14.2836C13.2301 13.8876 13.2271 13.4826 13.2271 13.0686V11.4666C13.2271 11.3946 13.2481 11.3376 13.2901 11.2956C13.3321 11.2536 13.3861 11.2326 13.4521 11.2326H16.6381ZM15.3511 16.3176C15.4051 16.3176 15.4471 16.2936 15.4771 16.2456C15.5131 16.1976 15.5311 16.1436 15.5311 16.0836V12.7446C15.5311 12.6966 15.5131 12.6516 15.4771 12.6096C15.4411 12.5676 15.3991 12.5466 15.3511 12.5466H14.7211C14.6731 12.5466 14.6281 12.5676 14.5861 12.6096C14.5501 12.6516 14.5321 12.6966 14.5321 12.7446V13.1946C14.5321 13.4466 14.5321 13.7046 14.5321 13.9686C14.5381 14.2326 14.5381 14.4906 14.5321 14.7426C14.5321 14.9946 14.5201 15.2376 14.4961 15.4716C14.4721 15.7056 14.4331 15.9216 14.3791 16.1196C14.3491 16.1916 14.3581 16.2426 14.4061 16.2726C14.4601 16.3026 14.5111 16.3176 14.5591 16.3176H15.3511ZM19.9011 16.0566C19.8531 16.0566 19.8111 16.0776 19.7751 16.1196C19.7391 16.1616 19.7211 16.2096 19.7211 16.2636V17.3976C19.7211 17.4576 19.7001 17.5116 19.6581 17.5596C19.6161 17.6016 19.5621 17.6226 19.4961 17.6226H18.6411C18.5751 17.6226 18.5211 17.6016 18.4791 17.5596C18.4371 17.5116 18.4161 17.4576 18.4161 17.3976V11.4666C18.4161 11.3946 18.4371 11.3376 18.4791 11.2956C18.5211 11.2536 18.5751 11.2326 18.6411 11.2326H20.1351C21.0471 11.2326 21.7461 11.4276 22.2321 11.8176C22.7241 12.2076 22.9701 12.7806 22.9701 13.5366C22.9701 13.9086 22.9071 14.2506 22.7811 14.5626C22.6551 14.8686 22.4721 15.1326 22.2321 15.3546C21.9921 15.5766 21.6951 15.7506 21.3411 15.8766C20.9871 15.9966 20.5851 16.0566 20.1351 16.0566H19.9011ZM19.9191 12.5466C19.8651 12.5466 19.8171 12.5676 19.7751 12.6096C19.7391 12.6456 19.7211 12.6906 19.7211 12.7446V14.5266C19.7211 14.5926 19.7361 14.6466 19.7661 14.6886C19.8021 14.7306 19.8501 14.7516 19.9101 14.7516H20.1351C21.1491 14.7516 21.6561 14.3826 21.6561 13.6446C21.6561 13.2666 21.5301 12.9906 21.2781 12.8166C21.0321 12.6366 20.6511 12.5466 20.1351 12.5466H19.9191ZM24.7405 17.6226H24.6325C24.5665 17.6226 24.5125 17.6016 24.4705 17.5596C24.4285 17.5176 24.4075 17.4636 24.4075 17.3976V16.5426C24.4075 16.4766 24.4285 16.4226 24.4705 16.3806C24.5125 16.3386 24.5665 16.3176 24.6325 16.3176L24.9475 16.3086C25.0735 16.2846 25.1635 16.2096 25.2175 16.0836L25.3615 15.6876C25.3915 15.6216 25.4095 15.5496 25.4155 15.4716C25.4275 15.3876 25.4095 15.2946 25.3615 15.1926L23.7595 11.5206C23.7295 11.4546 23.7265 11.3916 23.7505 11.3316C23.7805 11.2656 23.8285 11.2326 23.8945 11.2326H24.7135C24.8155 11.2326 24.8935 11.2446 24.9475 11.2686C25.0015 11.2866 25.0435 11.3286 25.0735 11.3946L25.9645 13.4106C25.9885 13.4646 26.0245 13.4826 26.0725 13.4646C26.1265 13.4406 26.1595 13.4136 26.1715 13.3836L26.8825 11.3946C26.9065 11.3286 26.9455 11.2866 26.9995 11.2686C27.0595 11.2446 27.1405 11.2326 27.2425 11.2326H28.0615C28.1275 11.2326 28.1725 11.2656 28.1965 11.3316C28.2205 11.3916 28.2205 11.4546 28.1965 11.5206L26.3155 16.8486C26.2315 17.1006 26.0965 17.2926 25.9105 17.4246C25.7245 17.5566 25.4485 17.6226 25.0825 17.6226H24.7405ZM29.0702 13.0056C29.0702 12.6816 29.1332 12.4026 29.2592 12.1686C29.3912 11.9346 29.5562 11.7426 29.7542 11.5926C29.9582 11.4366 30.1832 11.3226 30.4292 11.2506C30.6752 11.1786 30.9152 11.1426 31.1492 11.1426C31.3652 11.1426 31.5962 11.1786 31.8422 11.2506C32.0882 11.3166 32.3132 11.4246 32.5172 11.5746C32.7272 11.7186 32.8982 11.9106 33.0302 12.1506C33.1682 12.3846 33.2372 12.6696 33.2372 13.0056C33.2372 13.2816 33.1832 13.5246 33.0752 13.7346C32.9672 13.9386 32.8292 14.1306 32.6612 14.3106C32.5832 14.4006 32.5862 14.4846 32.6702 14.5626C32.8442 14.7306 32.9822 14.9196 33.0842 15.1296C33.1862 15.3396 33.2372 15.5796 33.2372 15.8496C33.2372 16.1856 33.1682 16.4736 33.0302 16.7136C32.8982 16.9476 32.7272 17.1396 32.5172 17.2896C32.3132 17.4336 32.0882 17.5416 31.8422 17.6136C31.5962 17.6796 31.3652 17.7126 31.1492 17.7126C30.9152 17.7126 30.6752 17.6766 30.4292 17.6046C30.1832 17.5326 29.9582 17.4216 29.7542 17.2716C29.5562 17.1156 29.3912 16.9206 29.2592 16.6866C29.1332 16.4526 29.0702 16.1736 29.0702 15.8496C29.0702 15.7896 29.0912 15.7386 29.1332 15.6966C29.1812 15.6486 29.2382 15.6246 29.3042 15.6246H30.1502C30.2162 15.6246 30.2702 15.6486 30.3122 15.6966C30.3602 15.7386 30.3842 15.7896 30.3842 15.8496C30.3842 15.9816 30.4232 16.0926 30.5012 16.1826C30.5792 16.2666 30.6752 16.3296 30.7892 16.3716C30.9032 16.4076 31.0262 16.4256 31.1582 16.4256C31.2902 16.4196 31.4132 16.3956 31.5272 16.3536C31.6412 16.3056 31.7342 16.2396 31.8062 16.1556C31.8842 16.0716 31.9232 15.9696 31.9232 15.8496C31.9232 15.7416 31.9052 15.6426 31.8692 15.5526C31.8332 15.4566 31.7732 15.3756 31.6892 15.3096C31.6052 15.2376 31.4912 15.1836 31.3472 15.1476C31.2032 15.1056 31.0232 15.0846 30.8072 15.0846H30.5012C30.4292 15.0846 30.3722 15.0636 30.3302 15.0216C30.2882 14.9736 30.2672 14.9166 30.2672 14.8506V14.0046C30.2672 13.9386 30.2882 13.8846 30.3302 13.8426C30.3722 13.7946 30.4292 13.7706 30.5012 13.7706H30.7802C31.1762 13.7706 31.4642 13.6986 31.6442 13.5546C31.8302 13.4046 31.9232 13.2216 31.9232 13.0056C31.9232 12.8796 31.8842 12.7746 31.8062 12.6906C31.7342 12.6066 31.6412 12.5466 31.5272 12.5106C31.4132 12.4686 31.2872 12.4476 31.1492 12.4476C31.0172 12.4476 30.8942 12.4716 30.7802 12.5196C30.6662 12.5616 30.5702 12.6246 30.4922 12.7086C30.4202 12.7866 30.3842 12.8856 30.3842 13.0056C30.3842 13.0656 30.3602 13.1196 30.3122 13.1676C30.2702 13.2096 30.2162 13.2306 30.1502 13.2306H29.3042C29.2382 13.2306 29.1812 13.2096 29.1332 13.1676C29.0912 13.1196 29.0702 13.0656 29.0702 13.0056ZM38.295 11.2326C38.355 11.2326 38.406 11.2566 38.448 11.3046C38.496 11.3466 38.52 11.4006 38.52 11.4666V12.3126C38.52 12.3786 38.496 12.4356 38.448 12.4836C38.406 12.5256 38.355 12.5466 38.295 12.5466H35.937C35.883 12.5466 35.838 12.5706 35.802 12.6186C35.772 12.6666 35.757 12.7176 35.757 12.7716V13.6626C35.757 13.7286 35.772 13.7856 35.802 13.8336C35.838 13.8756 35.883 13.8966 35.937 13.8966H38.295C38.355 13.8966 38.406 13.9176 38.448 13.9596C38.496 14.0016 38.52 14.0556 38.52 14.1216V14.9766C38.52 15.0426 38.496 15.0966 38.448 15.1386C38.406 15.1806 38.355 15.2016 38.295 15.2016H35.937C35.889 15.2016 35.847 15.2226 35.811 15.2646C35.775 15.3006 35.757 15.3456 35.757 15.3996V16.1196C35.757 16.1796 35.775 16.2276 35.811 16.2636C35.853 16.2996 35.898 16.3176 35.946 16.3176H38.295C38.355 16.3176 38.406 16.3386 38.448 16.3806C38.496 16.4226 38.52 16.4766 38.52 16.5426V17.3976C38.52 17.4636 38.496 17.5176 38.448 17.5596C38.406 17.6016 38.355 17.6226 38.295 17.6226H34.677C34.611 17.6226 34.557 17.6016 34.515 17.5596C34.473 17.5116 34.452 17.4576 34.452 17.3976V11.4666C34.452 11.3946 34.473 11.3376 34.515 11.2956C34.557 11.2536 34.611 11.2326 34.677 11.2326H38.295ZM40.1423 11.2326C40.0763 11.2326 40.0223 11.2536 39.9803 11.2956C39.9383 11.3376 39.9173 11.3946 39.9173 11.4666V17.3976C39.9173 17.4576 39.9383 17.5116 39.9803 17.5596C40.0223 17.6016 40.0763 17.6226 40.1423 17.6226H40.9523C41.0663 17.6226 41.1473 17.5866 41.1953 17.5146L43.1573 14.2386C43.1693 14.2206 43.1873 14.2086 43.2113 14.2026C43.2353 14.1906 43.2593 14.1906 43.2833 14.2026C43.3133 14.2086 43.3373 14.2296 43.3553 14.2656C43.3733 14.2956 43.3823 14.3466 43.3823 14.4186V17.3976C43.3823 17.4576 43.4033 17.5116 43.4453 17.5596C43.4873 17.6016 43.5413 17.6226 43.6073 17.6226H44.4623C44.5283 17.6226 44.5823 17.6016 44.6243 17.5596C44.6663 17.5116 44.6873 17.4576 44.6873 17.3976V11.4666C44.6873 11.3946 44.6663 11.3376 44.6243 11.2956C44.5823 11.2536 44.5283 11.2326 44.4623 11.2326H43.6073C43.5293 11.2326 43.4573 11.2776 43.3913 11.3676L41.4383 14.6256C41.4203 14.6496 41.3993 14.6706 41.3753 14.6886C41.3513 14.7006 41.3273 14.7036 41.3033 14.6976C41.2853 14.6856 41.2673 14.6646 41.2493 14.6346C41.2313 14.5986 41.2223 14.5416 41.2223 14.4636V11.4666C41.2223 11.3946 41.2013 11.3376 41.1593 11.2956C41.1173 11.2536 41.0633 11.2326 40.9973 11.2326H40.1423ZM41.8163 9.09056C41.8823 9.09056 41.9363 9.11156 41.9783 9.15356C42.0203 9.19556 42.0413 9.24956 42.0413 9.31556C42.0413 9.44156 42.0743 9.52856 42.1403 9.57656C42.2123 9.61856 42.2873 9.63956 42.3653 9.63956C42.4493 9.63956 42.5243 9.61856 42.5903 9.57656C42.6623 9.52856 42.6983 9.44156 42.6983 9.31556C42.6983 9.24956 42.7193 9.19556 42.7613 9.15356C42.8093 9.11156 42.8663 9.09056 42.9323 9.09056H43.5983C43.6643 9.09056 43.7183 9.11156 43.7603 9.15356C43.8083 9.19556 43.8323 9.24956 43.8323 9.31556C43.8323 9.51956 43.7933 9.71156 43.7153 9.89156C43.6433 10.0656 43.5413 10.2186 43.4093 10.3506C43.2773 10.4766 43.1213 10.5786 42.9413 10.6566C42.7613 10.7286 42.5693 10.7646 42.3653 10.7646C42.1613 10.7646 41.9693 10.7286 41.7893 10.6566C41.6153 10.5786 41.4623 10.4766 41.3303 10.3506C41.2043 10.2186 41.1023 10.0656 41.0243 9.89156C40.9523 9.71156 40.9163 9.51956 40.9163 9.31556C40.9163 9.24956 40.9373 9.19556 40.9793 9.15356C41.0213 9.11156 41.0753 9.09056 41.1413 9.09056H41.8163Z" fill="#8EA6AB"/>
</svg>
