<svg width="15" height="20" viewBox="0 0 15 20" fill="none" xmlns="http://www.w3.org/2000/svg">
<g opacity="0.35" clip-path="url(#clip0_2114_3077)">
<path d="M15.0004 7.29998C14.991 7.98878 14.8849 8.67305 14.6852 9.33362C14.381 10.381 13.9358 11.3716 13.4251 12.3348C12.5676 13.9494 11.5199 15.4453 10.4126 16.901C9.67786 17.8667 8.90098 18.7997 8.08197 19.7002C8.02293 19.769 7.95585 19.8308 7.88212 19.8843C7.75285 19.975 7.59418 20.0164 7.4359 20.0008C7.27763 19.9852 7.13062 19.9136 7.02246 19.7994C6.76603 19.5349 6.52356 19.256 6.28182 18.9778C5.07722 17.5896 3.96169 16.1296 2.94164 14.6064C2.00629 13.2118 1.18411 11.7562 0.594833 10.1855C0.311881 9.46398 0.123268 8.7104 0.0334796 7.94263C-0.0749255 6.86579 0.0760602 5.77907 0.474332 4.7696C1.17749 2.94371 2.4398 1.60664 4.22158 0.733231C5.02291 0.341047 5.8936 0.102646 6.7866 0.0309097C9.11504 -0.161744 11.1216 0.547047 12.7895 2.13284C13.877 3.16656 14.5456 4.43318 14.8535 5.88814C14.9518 6.35258 15.001 6.82568 15.0004 7.29998V7.29998ZM7.4949 10.6491C8.16652 10.6501 8.82336 10.4562 9.38233 10.0919C9.94129 9.72767 10.3773 9.20939 10.6351 8.60266C10.893 7.99593 10.9611 7.32801 10.8309 6.68338C10.7008 6.03876 10.3781 5.44639 9.90374 4.98121C9.4294 4.51602 8.8247 4.19892 8.16613 4.07001C7.50756 3.94111 6.82471 4.00619 6.20395 4.25702C5.58319 4.50785 5.05241 4.93317 4.67875 5.47917C4.30509 6.02517 4.10533 6.66733 4.10475 7.32442C4.10114 7.76134 4.18631 8.19461 4.3553 8.59906C4.52429 9.00351 4.77374 9.37108 5.08916 9.68041C5.40458 9.98974 5.77968 10.2347 6.19267 10.401C6.60566 10.5673 7.04831 10.6516 7.4949 10.6491V10.6491Z" fill="#202D30"/>
</g>
<defs>
<clipPath id="clip0_2114_3077">
<rect width="15" height="20" fill="white"/>
</clipPath>
</defs>
</svg>
