<svg width="214" height="19" viewBox="0 0 214 19" fill="none" xmlns="http://www.w3.org/2000/svg">
<path d="M19.0357 17.9684L19.0117 1.16844H15.7957L9.60372 11.6084L3.31572 1.16844H0.0997189V17.9684H3.74772V8.10444L8.69172 16.1924H10.4197L15.3637 7.91244L15.3877 17.9684H19.0357ZM32.3051 18.2564C37.5851 18.2564 41.4971 14.5844 41.4971 9.56844C41.4971 4.55244 37.5851 0.880445 32.3051 0.880445C27.0011 0.880445 23.1131 4.57644 23.1131 9.56844C23.1131 14.5604 27.0011 18.2564 32.3051 18.2564ZM32.3051 14.9444C29.3051 14.9444 27.0491 12.7604 27.0491 9.56844C27.0491 6.37644 29.3051 4.19244 32.3051 4.19244C35.3051 4.19244 37.5611 6.37644 37.5611 9.56844C37.5611 12.7604 35.3051 14.9444 32.3051 14.9444ZM45.5722 17.9684H49.2442L57.2602 7.04844V17.9684H61.1002V1.16844H57.4522L49.4362 12.1124V1.16844H45.5722V17.9684ZM93.248 17.9684H97.736L92.72 9.18444L97.424 1.16844H93.32L89.528 7.96044H87.032V1.16844H83.216V7.96044H80.648L76.88 1.16844H72.776L77.504 9.18444L72.464 17.9684H76.952L80.72 11.2004H83.216V17.9684H87.032V11.2004H89.48L93.248 17.9684ZM104.543 14.8484V10.9604H112.343V7.93644H104.543V4.28844H113.375V1.16844H100.679V17.9684H113.687V14.8484H104.543ZM119.972 1.16844L119.732 7.98444C119.564 12.2804 119.06 14.7764 117.092 14.7764C116.852 14.7764 116.636 14.7524 116.396 14.6804L116.156 17.9684C116.876 18.1364 117.5 18.2324 118.076 18.2324C122.012 18.2324 122.948 14.4404 123.164 7.84044L123.284 4.33644H129.044V17.9684H132.884V1.16844H119.972ZM151.024 17.9684H155.104L147.592 1.16844H143.752L136.264 17.9684H140.248L141.736 14.3684H149.536L151.024 17.9684ZM142.984 11.4164L145.648 4.98444L148.312 11.4164H142.984ZM169.932 1.16844V7.79244H162.3V1.16844H158.412V17.9684H162.3V11.0804H169.932V17.9684H173.82V1.16844H169.932ZM179.109 17.9684H182.781L190.797 7.04844V17.9684H194.637V1.16844H190.989L182.973 12.1124V1.16844H179.109V17.9684ZM206.068 1.16844C201.628 1.16844 198.82 3.52044 198.82 7.43244C198.82 10.0724 200.092 11.9924 202.348 12.9044L198.844 17.9684H202.948L205.924 13.5044H209.476V17.9684H213.316V1.16844H206.068ZM206.164 4.33644H209.476V10.4324H206.068C203.884 10.4324 202.756 9.32844 202.756 7.38444C202.756 5.36844 203.956 4.33644 206.164 4.33644Z" fill="#313C3E"/>
</svg>
