<svg width="23" height="23" viewBox="0 0 23 23" fill="none" xmlns="http://www.w3.org/2000/svg">
<path d="M1.54514 20.1294C1.44392 20.4794 1.54104 20.8567 1.79866 21.1143C2.05628 21.372 2.43362 21.4691 2.7836 21.3679L8.90424 19.5976L8.62641 18.637L8.90425 19.5976C9.14754 19.5273 9.36906 19.3964 9.54815 19.2174L20.4988 8.26672C22.0609 6.70462 22.0609 4.17196 20.4988 2.60986L20.3031 2.41421C18.741 0.852117 16.2084 0.852116 14.6463 2.41421L3.69564 13.3648C3.51655 13.5439 3.38573 13.7655 3.31536 14.0087L4.27599 14.2866L3.31536 14.0088L1.54514 20.1294Z" stroke="#8EA7AB" stroke-width="2" stroke-linecap="round" stroke-linejoin="round"/>
<line x1="13.7135" y1="21.6265" x2="21.7135" y2="21.6265" stroke="#8EA7AB" stroke-width="2" stroke-linecap="round"/>
</svg>
