<svg width="24" height="23" viewBox="0 0 24 23" fill="none" xmlns="http://www.w3.org/2000/svg">
<path d="M2.35967 20.4487C2.28375 20.7112 2.35659 20.9942 2.54981 21.1874C2.74302 21.3806 3.02603 21.4535 3.28851 21.3776L9.40916 19.6074L9.20078 18.8869L9.40916 19.6074C9.6119 19.5487 9.7965 19.4397 9.94574 19.2905L20.8964 8.33982C22.3608 6.87536 22.3608 4.50099 20.8964 3.03652L20.7007 2.84087C19.2363 1.3764 16.8619 1.3764 15.3974 2.84087L4.44679 13.7915C4.29755 13.9407 4.18853 14.1253 4.12989 14.3281L4.84789 14.5357L4.12989 14.3281L2.35967 20.4487Z" stroke="#939393" stroke-width="1.5" stroke-linecap="round" stroke-linejoin="round"/>
<line x1="14.0378" y1="22.1262" x2="22.5378" y2="22.1262" stroke="#939393" stroke-width="1.5" stroke-linecap="round"/>
</svg>
