<svg width="19" height="20" viewBox="0 0 19 20" fill="none" xmlns="http://www.w3.org/2000/svg">
<path d="M17.4255 11.476V16.9348C17.4255 18.0394 16.5301 18.9348 15.4255 18.9348H3.61377C2.5092 18.9348 1.61377 18.0394 1.61377 16.9348V11.476" stroke="#313C3E" stroke-width="1.5" stroke-linecap="round" stroke-linejoin="round"/>
<path d="M10.05 0.404494C9.75715 0.111601 9.28228 0.111601 8.98938 0.404494L4.21641 5.17746C3.92352 5.47036 3.92352 5.94523 4.21641 6.23813C4.50931 6.53102 4.98418 6.53102 5.27707 6.23813L9.51971 1.99548L13.7624 6.23812C14.0552 6.53102 14.5301 6.53102 14.823 6.23812C15.1159 5.94523 15.1159 5.47036 14.823 5.17746L10.05 0.404494ZM10.2697 11.476L10.2697 0.934824L8.76971 0.934824L8.76971 11.476L10.2697 11.476Z" fill="#313C3E"/>
</svg>
