<svg width="17" height="10" viewBox="0 0 17 10" fill="none" xmlns="http://www.w3.org/2000/svg">
<path d="M14.1069 5.73409C13.8323 5.3842 13.9107 5.22851 14.1069 4.91546C14.1106 4.91211 16.3794 1.75043 16.6132 0.678341C16.7294 0.287608 16.6132 0.000669778 16.0517 0.000669778H14.1922C13.7191 0.000669778 13.5009 0.247095 13.384 0.52265C13.384 0.52265 12.4374 2.80711 11.0986 4.28768C10.6669 4.71557 10.4677 4.85251 10.2309 4.85251C10.1147 4.85251 9.9341 4.71557 9.9341 4.32484V0.677671C9.9341 0.208926 9.80128 0 9.41013 0H6.48814C6.19163 0 6.01498 0.218301 6.01498 0.42187C6.01498 0.866173 6.68438 0.968293 6.75378 2.2185V4.93053C6.75378 5.52483 6.64686 5.63364 6.40978 5.63364C5.7789 5.63364 4.24419 3.34014 3.33538 0.715171C3.15442 0.206248 2.97379 0.000669778 2.49697 0.000669778H0.637525C0.106254 0.000669778 0 0.247095 0 0.52265C0 1.00981 0.630884 3.43188 2.93826 6.63207C4.47529 8.81675 6.64088 9.99966 8.60957 9.99966C9.79298 9.99966 9.93775 9.73683 9.93775 9.28483C9.93775 7.19758 9.8305 7.00037 10.4235 7.00037C10.6985 7.00037 11.1716 7.13764 12.2767 8.19131C13.5384 9.44052 13.7473 9.99933 14.4542 9.99933H16.3137C16.8433 9.99933 17.1106 9.7365 16.9575 9.21787C16.6022 8.1277 14.2148 5.88409 14.1069 5.73409Z" fill="#313C3E"/>
</svg>
