<svg width="65" height="63" viewBox="0 0 65 63" fill="none" xmlns="http://www.w3.org/2000/svg">
<path d="M35.9225 3.45534C37.6751 1.68654 40.4552 1.6738 42.224 3.42646C43.9928 5.17913 44.0056 7.95923 42.2529 9.72803C40.4998 11.4042 32.815 12.9221 32.815 12.9221C32.815 12.9221 34.1698 5.22414 35.9225 3.45534Z" stroke="#F7F7F7" stroke-width="2.5" stroke-miterlimit="10"/>
<path d="M29.623 3.4853C27.8542 1.73264 25.074 1.74538 23.3214 3.51418C21.5687 5.28298 21.6741 8.06266 23.3503 9.81575C25.0264 11.5688 32.8171 12.9232 32.8171 12.9232C32.8171 12.9232 31.3918 5.23796 29.623 3.4853Z" stroke="#F7F7F7" stroke-width="2.5" stroke-miterlimit="10"/>
<rect x="2.88672" y="14.5625" width="59.8442" height="46.4124" rx="18" stroke="#F7F7F7" stroke-width="4"/>
<circle opacity="0.75" cx="19.5332" cy="29.0576" r="6.5" fill="#F7F7F7"/>
<path opacity="0.75" d="M19.3086 40.5625L7.80859 56.0625L18.5586 62.0625L50.3086 61.0625L62.3086 51.0625L63.3086 38.0625L51.3086 29.0625L31.8086 51.0625L19.3086 40.5625Z" fill="#F7F7F7"/>
<line x1="34.5" y1="13" x2="34.5" y2="62.0625" stroke="#F7F7F7" stroke-width="4"/>
</svg>
